<?xml version="1.0" encoding="UTF-8" standalone="no"?>
<svg width="25px" height="44px" viewBox="0 0 25 44" version="1.1" xmlns="http://www.w3.org/2000/svg" xmlns:xlink="http://www.w3.org/1999/xlink">
    <!-- Generator: Sketch 43.1 (39012) - http://www.bohemiancoding.com/sketch -->
    <title>Shape</title>
    <desc>Created with Sketch.</desc>
    <defs></defs>
    <g id="Page-1" stroke="none" stroke-width="1" fill="none" fill-rule="evenodd">
        <g id="home_v1" transform="translate(-148.000000, -2852.000000)" fill-rule="nonzero" fill="#153648">
            <g id="why-us" transform="translate(148.000000, 2429.000000)">
                <g id="007-oxygen-tank" transform="translate(0.000000, 423.000000)">
                    <g id="Layer_1">
                        <g id="XMLID_498_">
                            <path d="M15.3375,3.61917838 C14.8257143,1.54392432 12.9475,0 10.7142857,0 C8.08857143,0 5.95238095,2.13388108 5.95238095,4.75675676 C5.95238095,6.96912432 7.4722619,8.83353514 9.52380952,9.36296216 L9.52380952,10.7690595 C4.17416667,11.3625838 0,15.9058811 0,21.4054054 L0,35.5012216 C0,40.1874595 3.81666667,44 8.50797619,44 L12.9205952,44 C17.6119048,44 21.4285714,40.1874595 21.4285714,35.5012216 L21.4285714,21.4054054 C21.4285714,15.9058811 17.2544048,11.3625838 11.9047619,10.7691784 L11.9047619,9.36296216 C13.5538095,8.93747027 14.8583333,7.64886486 15.3070238,6.01063784 C19.4216667,6.51556757 22.6190476,10.0258162 22.6190476,14.2702703 L22.6190476,17.2432432 L25,17.2432432 L25,14.2702703 C25,8.7232973 20.7535714,4.14884324 15.3375,3.61917838 Z M12.9205952,41.6216216 L8.50797619,41.6216216 C6.04142857,41.6216216 3.91214286,40.157373 2.94154762,38.0540541 L18.4871429,38.0540541 C17.5164286,40.157373 15.3871429,41.6216216 12.9205952,41.6216216 Z M19.047619,35.5012216 C19.047619,35.5597297 19.044881,35.6175243 19.0432143,35.6756757 L2.38535714,35.6756757 C2.38369048,35.6175243 2.38095238,35.5597297 2.38095238,35.5012216 L2.38095238,22.5945946 L19.047619,22.5945946 L19.047619,35.5012216 Z M18.9611905,20.2162162 L2.46738095,20.2162162 C3.04690476,16.1876 6.52357143,13.0810811 10.7142857,13.0810811 C14.905,13.0810811 18.3816667,16.1876 18.9611905,20.2162162 Z M10.7142857,7.13513514 C9.40142857,7.13513514 8.33333333,6.06819459 8.33333333,4.75675676 C8.33333333,3.44531892 9.40142857,2.37837838 10.7142857,2.37837838 C12.0271429,2.37837838 13.0952381,3.44531892 13.0952381,4.75675676 C13.0952381,6.06819459 12.0271429,7.13513514 10.7142857,7.13513514 Z" id="Shape"></path>
                        </g>
                    </g>
                </g>
            </g>
        </g>
    </g>
</svg>