<?xml version="1.0" encoding="UTF-8" standalone="no"?>
<svg width="37px" height="66px" viewBox="0 0 37 66" version="1.1" xmlns="http://www.w3.org/2000/svg" xmlns:xlink="http://www.w3.org/1999/xlink">
    <!-- Generator: Sketch 44.1 (41455) - http://www.bohemiancoding.com/sketch -->
    <title>Shape</title>
    <desc>Created with Sketch.</desc>
    <defs></defs>
    <g id="Page-1" stroke="none" stroke-width="1" fill="none" fill-rule="evenodd">
        <g id="aboutus_v1" transform="translate(-818.000000, -2174.000000)" fill-rule="nonzero" fill="#FFFFFF">
            <g id="book-now" transform="translate(-30.000000, 1743.000000)">
                <g id="Group-3" transform="translate(570.000000, 389.000000)">
                    <g id="007-oxygen-tank" transform="translate(278.000000, 42.000000)">
                        <g id="Layer_1">
                            <g id="XMLID_498_">
                                <path d="M22.6995,5.42876757 C21.9420571,2.31588649 19.1623,0 15.8571429,0 C11.9710857,0 8.80952381,3.20082162 8.80952381,7.13513514 C8.80952381,10.4536865 11.0589476,13.2503027 14.0952381,14.0444432 L14.0952381,16.1535892 C6.17776667,17.0438757 0,23.8588216 0,32.1081081 L0,53.2518324 C0,60.2811892 5.64866667,66 12.5918048,66 L19.122481,66 C26.065619,66 31.7142857,60.2811892 31.7142857,53.2518324 L31.7142857,32.1081081 C31.7142857,23.8588216 25.536519,17.0438757 17.6190476,16.1537676 L17.6190476,14.0444432 C20.0596381,13.4062054 21.9903333,11.4732973 22.6543952,9.01595676 C28.7440667,9.77335135 33.4761905,15.0387243 33.4761905,21.4054054 L33.4761905,25.8648649 L37,25.8648649 L37,21.4054054 C37,13.0849459 30.7152857,6.22326486 22.6995,5.42876757 Z M19.122481,62.4324324 L12.5918048,62.4324324 C8.94131429,62.4324324 5.78997143,60.2360595 4.35349048,57.0810811 L27.3609714,57.0810811 C25.9243143,60.2360595 22.7729714,62.4324324 19.122481,62.4324324 Z M28.1904762,53.2518324 C28.1904762,53.3395946 28.1864238,53.4262865 28.1839571,53.5135135 L3.53032857,53.5135135 C3.5278619,53.4262865 3.52380952,53.3395946 3.52380952,53.2518324 L3.52380952,33.8918919 L28.1904762,33.8918919 L28.1904762,53.2518324 Z M28.0625619,30.3243243 L3.65172381,30.3243243 C4.50941905,24.2814 9.65488571,19.6216216 15.8571429,19.6216216 C22.0594,19.6216216 27.2048667,24.2814 28.0625619,30.3243243 Z M15.8571429,10.7027027 C13.9141143,10.7027027 12.3333333,9.10229189 12.3333333,7.13513514 C12.3333333,5.16797838 13.9141143,3.56756757 15.8571429,3.56756757 C17.8001714,3.56756757 19.3809524,5.16797838 19.3809524,7.13513514 C19.3809524,9.10229189 17.8001714,10.7027027 15.8571429,10.7027027 Z" id="Shape"></path>
                            </g>
                        </g>
                    </g>
                </g>
            </g>
        </g>
    </g>
</svg>