<?xml version="1.0" encoding="UTF-8" standalone="no"?>
<svg width="45px" height="68px" viewBox="0 0 45 68" version="1.1" xmlns="http://www.w3.org/2000/svg" xmlns:xlink="http://www.w3.org/1999/xlink">
    <!-- Generator: Sketch 44.1 (41455) - http://www.bohemiancoding.com/sketch -->
    <title>006-snorkel-1</title>
    <desc>Created with Sketch.</desc>
    <defs></defs>
    <g id="Page-1" stroke="none" stroke-width="1" fill="none" fill-rule="evenodd">
        <g id="aboutus_v1" transform="translate(-1230.000000, -2173.000000)" fill-rule="nonzero" fill="#FFFFFF">
            <g id="book-now" transform="translate(-30.000000, 1743.000000)">
                <g id="Group-3" transform="translate(990.000000, 389.000000)">
                    <g id="006-snorkel-1" transform="translate(270.000000, 41.000000)">
                        <g id="Layer_1">
                            <g id="XMLID_16_">
                                <g id="Group">
                                    <path d="M44.609849,18.4551641 L38.9487898,8.42944142 C37.5325834,5.64760738 34.7186444,3.92182999 31.5940583,3.92182999 L29.8846024,3.92182999 L29.0122078,1.89078623 L28.9824344,1.82532077 C28.4524332,0.716533012 27.3160244,7.10542736e-15 26.0872465,7.10542736e-15 L18.9129485,7.10542736e-15 C17.6841706,7.10542736e-15 16.5477618,0.716533012 16.0179399,1.82514141 L15.1157719,3.92147128 L13.4063161,3.92147128 C10.2817299,3.92147128 7.46797027,5.64742802 6.05158449,8.42908271 L0.390525308,18.4546261 C-0.0320408437,19.2030847 -0.116159488,20.0989752 0.160050985,20.9128993 C0.436440815,21.7268234 1.04840843,22.3865001 1.83901607,22.7227953 L6.53154503,24.7195818 C6.90819567,24.8799273 7.30618985,24.9609969 7.71476612,24.9609969 C8.70141145,24.9609969 9.62779268,24.478346 10.1925893,23.669982 L11.0658807,22.4209367 L11.0658807,24.08645 C11.0658807,26.2193688 10.7457277,28.332917 10.1143894,30.3693415 C9.7992584,31.1380675 7.557649,36.7431671 7.557649,40.555051 C7.557649,49.1701274 9.0021939,59.9145354 9.86328901,65.5528162 C10.0560983,66.8153133 11.1236338,67.7314712 12.401735,67.7314712 L18.1944426,67.7314712 C19.5276065,67.7314712 20.6521777,66.6904805 20.7549495,65.3616212 C21.2702435,58.6988506 21.9005055,52.7680378 22.4945374,48.7115104 C23.0891074,52.7692933 23.7225979,58.7004648 24.24399,65.3644909 C24.3481966,66.691736 25.4729472,67.7314712 26.8041382,67.7314712 L32.5991774,67.7314712 C33.8744089,67.7314712 34.9417651,66.8174656 35.1367266,65.5580176 C35.677848,62.0662868 37.4427253,49.9178686 37.4427253,40.1909554 C37.4427253,36.6360907 35.2732176,31.2950053 34.8831152,30.3632433 C34.2528531,28.3286124 33.9334175,26.2172165 33.9334175,24.0862706 L33.9334175,22.4207574 L34.8065295,23.6694439 C35.3715055,24.4779873 36.2978867,24.9606382 37.2845321,24.9606382 C37.692929,24.9606382 38.0911025,24.8793893 38.4679325,24.7192231 L43.1599234,22.7226159 C43.9508898,22.3861414 44.5628574,21.7264647 44.8392472,20.9125406 C45.1163545,20.0993339 45.0322358,19.2032641 44.609849,18.4551641 Z M19.5367537,44.7552438 C19.1805498,46.4785102 18.8141225,48.894455 18.4476953,51.9359986 C17.890073,56.564497 17.4637403,61.520502 17.2531747,64.1448602 L13.2789723,64.1448602 C12.4257689,58.426048 11.1453361,48.5147553 11.1453361,40.5555891 C11.1453361,40.076346 11.1975291,39.5386324 11.2857729,38.9707867 L18.0823441,34.5792195 L20.6826685,41.3121188 C20.056711,42.2415491 19.7708152,43.6231396 19.5367537,44.7552438 Z M17.1425111,30.9153055 L12.6537322,33.8156948 C12.9665316,32.9076081 13.2606778,32.1446215 13.457971,31.6707591 L13.5141099,31.5174085 C14.2701016,29.1102522 14.6532091,26.610368 14.6532091,24.0868087 L14.6532091,21.3108935 L16.3122655,21.3108935 C16.7572513,21.3108935 17.119374,21.6730161 17.119374,22.118002 L17.119374,30.2787659 C17.119374,30.4918426 17.1287006,30.7040225 17.1425111,30.9153055 Z M31.7242718,64.1448602 L27.7455855,64.1448602 C27.5328675,61.5213988 27.1029477,56.5659318 26.5435318,51.9363573 C26.1758491,48.8951724 25.8096012,46.4797657 25.4548321,44.756858 C25.2103679,43.5709465 24.9305703,42.2132106 24.321293,41.3035097 L26.9182095,34.5793989 L33.7596201,38.9998426 C33.820781,39.4281482 33.8562938,39.830985 33.8562938,40.1916728 C33.8562938,48.9828782 32.3633224,59.8845827 31.7242718,64.1448602 Z M31.4860851,31.5175878 L31.5458111,31.679727 C31.7472295,32.1557417 32.0494468,32.9235709 32.3692412,33.8305815 L27.8576839,30.9154849 C27.8714944,30.7040225 27.880821,30.4920219 27.880821,30.2789453 L27.880821,22.1181813 C27.880821,21.6731955 28.2429437,21.3110728 28.6879295,21.3110728 L30.3469859,21.3110728 L30.3469859,24.0869881 C30.3469859,26.610368 30.7302728,29.1102522 31.4860851,31.5175878 Z M37.4850537,21.2398679 L33.9997797,16.254807 C33.6277924,15.7020273 33.0143899,15.3741619 32.3462834,15.3741619 C31.2439525,15.3741619 30.3469859,16.2702317 30.3469859,17.3716658 L30.3469859,17.7237445 L28.6879295,17.7237445 C26.2648104,17.7237445 24.293672,19.6950622 24.293672,22.118002 L24.293672,30.2787659 C24.293672,31.0605851 24.1464195,31.8253652 23.8560398,32.5515835 L22.5000975,36.0619675 L21.1518675,32.5711335 L21.1441552,32.5514042 C20.8537755,31.8250065 20.706523,31.0604057 20.706523,30.2785866 L20.706523,22.1178226 C20.706523,19.6948828 18.7353846,17.7235651 16.3122655,17.7235651 L14.6532091,17.7235651 L14.6532091,17.3714864 C14.6532091,16.2700523 13.7562425,15.3739825 12.6539116,15.3739825 C11.9858051,15.3739825 11.3724026,15.7020273 11.0004152,16.2546276 L7.51514128,21.2396885 L3.82432368,19.6692347 L9.19518251,10.1571917 L9.23607601,10.0804267 C10.0329612,8.4940101 11.631036,7.50862027 13.4063161,7.50862027 L17.4789857,7.50862027 L19.1636902,3.58714899 L25.8366841,3.58714899 L27.5213886,7.50879963 L31.5940583,7.50879963 C33.3693383,7.50879963 34.9674132,8.49436882 35.7642983,10.0806061 L41.1760507,19.6694141 L37.4850537,21.2398679 Z" id="Shape"></path>
                                </g>
                            </g>
                        </g>
                    </g>
                </g>
            </g>
        </g>
    </g>
</svg>