<?xml version="1.0" encoding="UTF-8" standalone="no"?>
<svg width="40px" height="44px" viewBox="0 0 40 44" version="1.1" xmlns="http://www.w3.org/2000/svg" xmlns:xlink="http://www.w3.org/1999/xlink">
    <!-- Generator: Sketch 43.1 (39012) - http://www.bohemiancoding.com/sketch -->
    <title>Group</title>
    <desc>Created with Sketch.</desc>
    <defs></defs>
    <g id="Page-1" stroke="none" stroke-width="1" fill="none" fill-rule="evenodd">
        <g id="home_v1" transform="translate(-189.000000, -2854.000000)" fill-rule="nonzero" fill="#153648">
            <g id="why-us" transform="translate(148.000000, 2429.000000)">
                <g id="006-snorkel-1" transform="translate(41.000000, 425.000000)">
                    <g id="Layer_1">
                        <g id="XMLID_16_">
                            <g id="Group">
                                <path d="M31.6567665,21.3126038 C31.6567665,15.8901671 26.7623952,11.4787817 20.7463473,11.4787817 L10.9172455,11.4787817 C4.90131737,11.4787817 0.00682634731,15.8901671 0.00682634731,21.3126038 C0.00682634731,26.5057898 4.50886228,30.817434 10.2561677,31.1285175 C10.9759281,31.167655 11.6798802,30.8877628 12.1711377,30.3735202 L15.7938922,26.5802695 C15.7988024,26.5750512 15.8093413,26.5641402 15.8317365,26.5641402 C15.8541317,26.5641402 15.8645509,26.5750512 15.8694611,26.5802695 L19.4924551,30.3736388 C19.9530539,30.8556226 20.6021557,31.1321941 21.2730539,31.1321941 C21.3176048,31.1321941 21.3623952,31.1310081 21.4071856,31.1286361 C27.1546108,30.817434 31.6567665,26.5057898 31.6567665,21.3126038 Z M21.2766467,28.7601078 L21.2732934,28.7601078 C21.257485,28.7601078 21.2426347,28.7539407 21.2326946,28.743504 L17.6098204,24.9502534 C17.1495808,24.4683881 16.5015569,24.1920539 15.8318563,24.1920539 C15.1620359,24.1920539 14.514012,24.4683881 14.0536527,24.9502534 L10.4311377,28.7432668 C10.4209581,28.7538221 10.4062275,28.7599892 10.3873054,28.7599892 L10.3869461,28.7599892 C5.90934132,28.5176927 2.40203593,25.2463935 2.40203593,21.3124852 C2.40203593,17.1980701 6.22191617,13.8506307 10.9172455,13.8506307 L20.7463473,13.8506307 C25.4415569,13.8506307 29.2615569,17.1980701 29.2615569,21.3124852 C29.2615569,25.2463935 25.7542515,28.5176927 21.2766467,28.7601078 Z" id="Shape"></path>
                                <path d="M36.7001198,2.96495957 C34.8841916,2.96495957 33.4067066,4.42798922 33.4067066,6.22641509 L33.4067066,35.2808841 C33.4067066,36.3940485 32.5243114,37.3256388 31.439521,37.3575418 C30.8870659,37.3745013 30.362994,37.1721725 29.9652695,36.7900485 C29.6308982,36.4685283 29.4246707,36.0554501 29.3667066,35.607504 C29.7347305,34.9901995 29.9468263,34.2713747 29.9468263,33.5040431 L27.5516168,33.5040431 C27.5516168,34.4849704 26.7457485,35.2830189 25.7552096,35.2830189 C24.7646707,35.2830189 23.9588024,34.4849704 23.9588024,33.5040431 L21.5635928,33.5040431 C21.5635928,34.6709326 22.0530539,35.7261024 22.8384431,36.4809811 C23.0876647,38.3509218 23.9505389,40.0766469 25.3343713,41.4261779 C26.9610778,43.0126685 29.1015569,43.8816388 31.3756886,43.8815202 C31.4205988,43.8815202 31.4658683,43.8811644 31.5107784,43.8805714 C36.1881437,43.8098868 39.9934132,39.9326685 39.9934132,35.2375957 L39.9934132,6.22641509 C39.9935329,4.42798922 38.5159281,2.96495957 36.7001198,2.96495957 Z M37.5983234,35.2373585 C37.5983234,38.6443342 34.8511377,41.4576065 31.4743713,41.5086038 C29.7930539,41.5362372 28.2131737,40.9044636 27.0150898,39.7360323 C26.3958084,39.1320108 25.9216766,38.4233854 25.6067066,37.6511914 C25.6561677,37.6529704 25.705509,37.6549865 25.7554491,37.6549865 C26.3471856,37.6549865 26.9102994,37.5322372 27.4211976,37.3122372 C27.6410778,37.7447655 27.9343713,38.1433747 28.297006,38.4919353 C29.1632335,39.3247332 30.3070659,39.7636658 31.5105389,39.728442 C33.8768862,39.6589434 35.8019162,37.6637628 35.8019162,35.2808841 L35.8019162,6.22641509 C35.8019162,5.73589218 36.2047904,5.33692722 36.7001198,5.33692722 C37.1954491,5.33692722 37.5983234,5.73589218 37.5983234,6.22641509 L37.5983234,35.2373585 Z" id="Shape"></path>
                                <path d="M28.7494611,7.11590296 C30.7305389,7.11590296 32.3422754,5.51980593 32.3422754,3.55795148 C32.3422754,1.59609704 30.7305389,0 28.7494611,0 C26.7683832,0 25.1566467,1.59609704 25.1566467,3.55795148 C25.1566467,5.51980593 26.7683832,7.11590296 28.7494611,7.11590296 Z M28.7494611,2.37196765 C29.4098204,2.37196765 29.9470659,2.904 29.9470659,3.55795148 C29.9470659,4.21190296 29.4098204,4.74393531 28.7494611,4.74393531 C28.0891018,4.74393531 27.5518563,4.21190296 27.5518563,3.55795148 C27.5518563,2.904 28.088982,2.37196765 28.7494611,2.37196765 Z" id="Shape"></path>
                            </g>
                        </g>
                    </g>
                </g>
            </g>
        </g>
    </g>
</svg>