<?xml version="1.0" encoding="UTF-8" standalone="no"?>
<svg width="71px" height="69px" viewBox="0 0 71 69" version="1.1" xmlns="http://www.w3.org/2000/svg" xmlns:xlink="http://www.w3.org/1999/xlink">
    <!-- Generator: Sketch 44.1 (41455) - http://www.bohemiancoding.com/sketch -->
    <title>Page 1</title>
    <desc>Created with Sketch.</desc>
    <defs></defs>
    <g id="Page-1" stroke="none" stroke-width="1" fill="none" fill-rule="evenodd" stroke-linecap="round" stroke-linejoin="round">
        <g id="aboutus_v1" transform="translate(-368.000000, -2170.000000)" stroke="#FEFEFE" stroke-width="4">
            <g id="book-now" transform="translate(-30.000000, 1743.000000)">
                <g id="Group-3" transform="translate(150.000000, 389.000000)">
                    <g id="Page-1" transform="translate(250.000000, 40.000000)">
                        <path d="M61.0631758,-6.90021234e-05 L57.2716416,-6.90021234e-05 C57.2716416,-6.90021234e-05 54.4591675,3.11551486 56.2544346,5.52010085 C57.4565505,7.13019639 57.5952669,7.1761518 57.5952669,7.1761518 C57.5952669,7.1761518 52.8328569,13.2942941 56.8093,16.054379 L57.0867327,24.6106423 C57.0867327,24.6106423 58.2869066,28.1068418 61.0631758,28.1068418 L61.0512462,28.1068418 C63.8443,28.1068418 65.0276892,24.6106423 65.0276892,24.6106423 L65.3051219,16.054379 C69.281565,13.2942941 64.5191551,7.1761518 64.5191551,7.1761518 C64.5191551,7.1761518 64.6578714,7.13019639 65.8599874,5.52010085 C67.6552545,3.11551486 64.8427803,-6.90021234e-05 64.8427803,-6.90021234e-05 L61.0512462,-6.90021234e-05" id="Stroke-1"></path>
                        <path d="M56.739387,21.2986093 C56.739387,21.2986093 48.4164056,21.1606051 41.4459087,13.3978662 C41.4459087,13.3978662 35.2036727,6.80816348 30.0711675,3.2890552 C25.1674056,-0.0731422505 8.78888799,-4.34175159 1.63431449,13.1563588 C-5.0240706,29.4408599 10.3629025,40.3884607 17.3092627,42.3442569 C28.337213,45.4493524 37.7005671,39.8601805 46.231623,37.1000955 C54.4877431,34.4290234 70.1586685,36.3370701 65.1664056,53.1085881 C60.3806913,69.1860828 22.9272752,63.3209023 22.9272752,63.3209023 L16.1301737,63.3209023" id="Stroke-3"></path>
                        <path d="M8.46230807,64.838949 L14.2190369,64.9079512 C17.0627222,63.3209023 14.7739023,60.9748301 14.7739023,60.9748301 C14.7739023,60.9748301 12.6237988,60.6298195 12.5544406,59.0427707 C12.4850824,57.4557219 14.1496787,56.2136837 14.1496787,56.2136837 C14.1496787,56.2136837 14.4137946,50.9137686 14.1496787,51.1765287 C12.920513,52.3993843 8.46230807,52.4185669 8.46230807,52.4185669 L8.43137433,52.4185669 C8.43137433,52.4185669 3.7843764,52.2115605 2.74400373,51.1765287 C2.4800265,50.9137686 2.74400373,56.2136837 2.74400373,56.2136837 C2.74400373,56.2136837 4.4086,57.4557219 4.33924182,59.0427707 C4.26988364,60.6298195 2.11978012,60.9748301 2.11978012,60.9748301 C2.11978012,60.9748301 -0.169039752,63.3209023 2.67464555,64.9079512 L8.43137433,64.838949 L8.46230807,64.838949 Z" id="Stroke-5"></path>
                    </g>
                </g>
            </g>
        </g>
    </g>
</svg>