<?xml version="1.0" encoding="utf-8"?>
<!-- Generator: Adobe Illustrator 16.0.4, SVG Export Plug-In . SVG Version: 6.00 Build 0)  -->
<!DOCTYPE svg PUBLIC "-//W3C//DTD SVG 1.1//EN" "http://www.w3.org/Graphics/SVG/1.1/DTD/svg11.dtd">
<svg version="1.1" id="Layer_1" xmlns="http://www.w3.org/2000/svg" xmlns:xlink="http://www.w3.org/1999/xlink" x="0px" y="0px"
	 width="500px" height="500px" viewBox="0 0 500 500" enable-background="new 0 0 500 500" xml:space="preserve">
<g id="Layer_1_1_" display="none">
	<g display="inline">
		<path d="M441.876,235.733c-1.116-1.656-2.846-4.095-4.746-6.694c-3.841-5.25-8.136-10.798-12.766-16.493
			c-14.608-17.963-30.351-34.675-46.787-49.671c-18.813-17.169-37.729-31.413-56.681-42.708c-1.228-0.975-2.012-1.525-2.235-1.68
			l-0.185,0.269c-35.129-20.469-70.375-30.813-105.336-30.813c-89.435,0-162.195,72.697-162.195,162.055
			c0,89.361,72.761,162.062,162.195,162.062c53.762,0,108.814-25.188,163.629-74.875c16.514-14.968,32.395-31.651,47.2-49.6
			c4.723-5.724,9.075-11.261,12.935-16.442c2.101-2.812,3.827-5.199,4.842-6.688l9.812-14.298L441.876,235.733z M316.749,252.312
			c-4.049-58.776-39.007-107.825-63.12-135.081c17.764,4.6,35.664,12.204,53.637,22.766c8.51,7.187,39.31,37.648,43.959,105.176
			c1.957,28.413-3.293,55.219-15.603,79.675c-9.271,18.417-19.302,28.536-19.399,28.64l0.26,0.264
			c-7.924,5.14-15.817,9.705-23.686,13.693C305.618,339.777,319.884,297.788,316.749,252.312z M74.945,249.996
			c0-76.124,61.994-138.055,138.195-138.055c0.771,0,1.543,0.023,2.315,0.035l-0.336,0.392
			c0.722,0.618,72.254,62.742,77.686,141.594c3.938,57.086-24.104,109.961-34.464,127.345c-15.236,4.495-30.317,6.752-45.201,6.752
			C136.939,388.059,74.945,326.124,74.945,249.996z M421.936,250.904c-0.395,0.58-1.601,2.312-4.271,5.893
			c-3.631,4.88-7.737,10.102-12.203,15.516c-12.44,15.076-25.671,29.203-39.394,42.088c6.607-19.172,11.022-42.941,9.102-70.874
			c-1.71-24.831-6.662-45.392-12.967-62.18c15.271,14.01,29.921,29.591,43.543,46.34c4.373,5.378,8.416,10.601,12.016,15.521
			c2.521,3.448,3.865,5.42,4.203,5.922l0.59,0.878L421.936,250.904z"/>
		<path d="M186.055,203.379c-25.724,0-46.652,20.914-46.652,46.621s20.928,46.621,46.652,46.621
			c25.724,0,46.652-20.914,46.652-46.621S211.779,203.379,186.055,203.379z M186.055,272.621c-12.491,0-22.652-10.146-22.652-22.621
			c0-12.473,10.162-22.621,22.652-22.621c12.49,0,22.652,10.148,22.652,22.621C208.707,262.475,198.545,272.621,186.055,272.621z"/>
	</g>
	<g display="inline">
		<g>
			<path d="M249.844,456.94l-14.298-9.812c-1.796-1.219-4.628-3.304-6.678-4.832c-5.323-3.966-10.861-8.322-16.459-12.948
				c-17.933-14.79-34.622-30.672-49.594-47.195c-49.681-54.812-74.873-109.86-74.873-163.625
				c0-89.437,72.701-162.199,162.062-162.199c89.357,0,162.055,72.762,162.055,162.199c0,54.633-25.211,109.958-74.934,164.434
				c-14.979,16.423-31.689,32.167-49.671,46.79c-5.726,4.65-11.272,8.943-16.494,12.763c-2.767,2.03-5.173,3.734-6.76,4.789
				L249.844,456.94z M250.004,80.328c-76.128,0-138.062,61.996-138.062,138.199c0,47.62,23.099,97.25,68.657,147.507
				c14.198,15.671,30.04,30.745,47.088,44.806c5.299,4.378,10.519,8.484,15.523,12.214c3.671,2.736,5.324,3.884,5.864,4.25
				l0.919,0.631l0.878-0.59c0.516-0.342,2.322-1.562,5.904-4.188c4.912-3.593,10.137-7.638,15.543-12.026
				c17.055-13.87,32.896-28.791,47.076-44.342c45.562-49.92,68.664-99.802,68.664-148.258
				C388.059,142.324,326.128,80.328,250.004,80.328z"/>
		</g>
		<g>
			<path d="M250.004,238.094c-25.707,0-46.621-20.928-46.621-46.652c0-25.722,20.914-46.648,46.621-46.648
				s46.621,20.926,46.621,46.648C296.625,217.166,275.711,238.094,250.004,238.094z M250.004,168.793
				c-12.473,0-22.621,10.16-22.621,22.648c0,12.491,10.148,22.652,22.621,22.652c12.475,0,22.621-10.162,22.621-22.652
				C272.625,178.953,262.479,168.793,250.004,168.793z"/>
		</g>
	</g>
	<path display="inline" d="M452.438,308.712l-0.149-0.771c-5.312-26.868-25.918-48.303-51.463-54.564
		c-5.107-33.137-33.493-58.046-67.854-58.046c-13.015,0-25.646,3.772-36.467,10.559c-11.352-22.375-34.537-37.748-61.256-37.748
		c-5.973,0-11.833,0.75-17.5,2.234c-12.944-14.149-31.417-22.417-50.713-22.417c-34.368,0-62.755,24.91-67.86,58.048
		c-25.528,6.271-46.129,27.775-51.457,54.749l-0.152,0.771L45.417,318h108.907c-1.25,4.327-1.921,8.901-1.921,13.632
		c0,2.914,1.701,15.106,3.128,24.821l1.256,8.547h297.799L452.438,308.712z M66.191,298l1.296-34.107
		c4.462-20.968,21.648-37.146,42.038-39.461l8.548-0.972l0.315-8.598c0.965-26.3,22.332-46.901,48.643-46.901
		c15.405,0,30.075,7.447,39.243,19.92l4.508,6.134l7.112-2.712c5.496-2.096,11.333-3.158,17.349-3.158
		c19.805,0,36.866,11.929,44.459,28.992c-4.869-1.077-9.868-1.625-14.948-1.625c-37.5,0-68.078,30.26-68.679,67.688
		c-11.863,1.086-22.487,6.564-30.291,14.806H66.191V298z M174.095,345c-0.884-6.35-1.617-12.024-1.693-13.472
		c0.055-15.742,12.609-28.532,28.033-28.532l1.703-0.005c1.214,0,2.17,0.022,2.893,0.146l13.37,2.243l-1.805-13.437
		c-0.345-2.57-0.528-5.207-0.528-7.625c0-26.916,21.841-48.812,48.688-48.812c6.014,0,11.85,1.063,17.348,3.16l7.111,2.713
		l4.51-6.134c9.166-12.471,23.836-19.917,39.243-19.917c26.306,0,47.671,20.602,48.64,46.902l0.315,8.596l8.546,0.973
		c20.411,2.324,37.602,18.43,42.045,39.283L433.808,345H174.095z"/>
	<g display="inline">
		<path d="M363.049,297.359c-10.312,0-18.67,8.358-18.67,18.68s8.357,18.688,18.67,18.688c10.309,0,18.67-8.364,18.67-18.688
			C381.719,305.721,373.357,297.359,363.049,297.359z"/>
		<path d="M132.863,297.359c-10.312,0-18.67,8.358-18.67,18.68s8.357,18.688,18.67,18.688c10.309,0,18.666-8.364,18.666-18.688
			C151.529,305.721,143.172,297.359,132.863,297.359z"/>
		<path d="M455,253.668C455,227.786,436.265,209,410.451,209h-23.184l-59.203-74H208.611l-75.234,74H92.25
			C65.645,209,44,229.038,44,253.668V335h43.138c7.453,17.934,25.139,30.578,45.726,30.578c20.587,0,38.271-12.646,45.726-30.578
			h138.734c7.453,17.934,25.139,30.578,45.726,30.578c20.589,0,38.275-12.646,45.729-30.578H455V253.668z M333,171.583L362.936,209
			H333V171.583z M216.389,154H314v55H160.472L216.389,154z M132.863,347.078c-17.095,0-31.002-13.924-31.002-31.039
			c0-17.114,13.907-31.037,31.002-31.037c17.095,0,31.002,13.923,31.002,31.037C163.865,333.154,149.958,347.078,132.863,347.078z
			 M363.049,347.078c-17.095,0-31.002-13.924-31.002-31.039c0-17.114,13.907-31.037,31.002-31.037
			c17.098,0,31.006,13.923,31.006,31.037C394.055,333.154,380.146,347.078,363.049,347.078z M436,316h-23.445
			c-0.021-27.297-22.221-49.498-49.506-49.498c-27.283,0-49.479,22.201-49.501,49.498H182.364
			c-0.021-27.297-22.219-49.498-49.501-49.498c-27.282,0-49.479,22.201-49.501,49.498H63v-62.332C63,241.324,74.183,228,92.25,228
			h21.81h288.408h7.983C425.494,228,436,238.555,436,253.668V316z"/>
	</g>
	<path display="inline" d="M421.523,255.764c-18.944-47.223-39.111-90.864-39.312-91.299L371.35,141l-40.012,79.336l-59.002-122.37
		l-36.457,55.759l-15.852-30.116l-48.429,61.677l-33.352-29.658l-7.961,12.002c-0.983,1.482-24.337,36.804-46.675,80.025
		c-30.892,59.773-43.887,103.92-38.623,131.212L46.942,389h377.856c0,0,10.566,0.024,15.667,0.024l1.988-0.003
		c9.664-0.028,12.295-7.582,12.725-9.099l0.157-0.616C456.902,372.479,461.064,354.333,421.523,255.764z M383.239,228.664
		l-11.96,12.261l-17.074-10.414l16.025-31.778C373.971,207.173,378.441,217.405,383.239,228.664z M424.828,364H68.826
		c0.604-22.712,13.401-59.183,36.896-104.676c4.102-7.943,8.266-15.649,12.324-22.931l51.52,50.823l32.292-27.97l-16.27-18.783
		l-14.926,12.93l-39.808-39.271c4.809-8.114,9.105-15.104,12.489-20.509l31.504,28.015l41.024-52.245l9.728,18.48l16.337,38.289
		l22.857-9.752l-15.805-37.041l20.052-30.669l47.597,98.714l-19.84,44.612l22.705,10.101l11.282-25.369l0.051,0.104l12.146-24.082
		l32.268,19.682l18.411-18.875c1.556,3.795,3.112,7.631,4.665,11.494c23.505,58.596,30.458,86.254,32.29,98.939
		C427.406,364.006,424.844,364,424.828,364z"/>
	<g display="inline">
		<g>
			<path d="M332.605,214.676c-30.527,0-55.363-24.852-55.363-55.398c0-30.544,24.836-55.395,55.363-55.395
				c30.524,0,55.36,24.85,55.36,55.395C387.969,189.824,363.133,214.676,332.605,214.676z M332.605,132.383
				c-14.812,0-26.863,12.065-26.863,26.895c0,14.832,12.051,26.898,26.863,26.898c14.812,0,26.86-12.066,26.86-26.898
				C359.469,144.448,347.418,132.383,332.605,132.383z"/>
		</g>
		<g>
			<path d="M414.544,322.034c-29.161,0-72.792-8.716-162.271-66.534c-47.005-30.375-92.633-36.54-135.614-18.323
				c-32.222,13.658-50.604,36.011-50.785,36.235l-22.132-17.957c0.925-1.141,23.108-28.121,61.795-44.518
				c35.894-15.213,93.17-23.984,162.205,20.625c45.847,29.625,82.211,48.104,111.171,56.491c23.631,6.846,37.767,5.744,51.521,4.676
				c4.747-0.367,9.565-0.748,14.565-0.748v28.502c-4,0-7.963,0.319-12.362,0.66C427.085,321.574,421.243,322.034,414.544,322.034z"
				/>
		</g>
		<g>
			<path d="M414.548,396.135c-29.159,0.001-72.788-8.712-162.272-66.533c-46.611-30.118-91.891-36.434-134.573-18.76
				c-32.511,13.46-51.662,36.473-51.852,36.701l-22.104-17.99c0.925-1.141,23.108-28.12,61.795-44.517
				c35.893-15.21,93.17-23.981,162.204,20.628c45.847,29.624,82.212,48.103,111.173,56.49c23.628,6.843,37.76,5.738,51.521,4.676
				c4.744-0.368,9.562-0.748,14.562-0.748v28.5c-4,0-7.962,0.322-12.361,0.663C427.088,395.675,421.245,396.135,414.548,396.135z"/>
		</g>
	</g>
	<g display="inline">
		<path d="M445.877,141.324c-2.039-4.69-7.217-7.138-12.146-5.768c-4.93,1.371-8.088,6.185-7.409,11.253
			c0.021,0.168,2.165,17.062-5.422,34.668c-9.646,22.378-30.422,36.115-61.773,40.863c-9.77-16.632-22.193-33.296-37.275-49.935
			c-12.807-14.12-27.061-27.684-42.367-40.314c-4.832-3.987-9.561-7.707-14.047-11.053c-2.498-1.863-4.498-3.308-5.715-4.127
			l-12.208-8.381l-12.323,8.267c-0.685,0.461-2.613,1.782-5.707,4.052c-4.478,3.274-9.218,6.939-14.099,10.901
			c-15.354,12.492-29.629,25.94-42.423,39.968c-15.075,16.519-27.498,33.127-37.271,49.767
			c-23.317-3.967-40.403-13.115-50.821-27.24c-15.507-21.025-11.36-46.825-11.323-47.042c0.91-5.118-2.155-10.106-7.131-11.607
			c-4.975-1.502-10.289,0.96-12.361,5.727c-16.759,38.553-12.645,80.027,11.897,119.94c18.101,29.438,40.831,47.565,41.79,48.323
			l1.258,0.977c-0.006,0.534,0.002,1.072,0.002,1.609V347h2.527c13.807,7,80.53,42.468,139.52,42.468
			c55.708,0,116.247-34.468,129.288-42.468H386v-32.719l7.172-5.716c0.95-0.747,23.43-18.636,41.315-47.837
			C458.725,221.16,462.631,179.87,445.877,141.324z M353.344,256.299c-6.812,3.988-30.685,17.354-58.344,25.784V173.925
			c4.008,4.03,7.909,8.113,11.663,12.252C328.057,209.779,343.639,233.217,353.344,256.299z M241.597,137.388
			c2.89-2.121,4.597-3.286,5.032-3.579l0.751-0.504l0.812,0.558c0.469,0.316,1.893,1.301,4.984,3.608
			c4.225,3.15,8.686,6.661,13.262,10.436c2.559,2.11,5.069,4.255,7.562,6.417V287.21c-7.16,1.276-14.354,2.028-21.367,2.028
			c-11.595,0-23.763-1.809-35.633-4.594V157.234c3.696-3.248,7.465-6.444,11.312-9.574
			C232.917,143.922,237.381,140.47,241.597,137.388z M188.104,185.536c2.565-2.812,5.207-5.595,7.896-8.356v101.526
			c-27.237-8.922-49.58-20.67-54.477-23.321c1.625-3.871,3.414-7.748,5.366-11.63l1.398,0.186l0.519-3.902
			C158.385,221.94,171.49,203.742,188.104,185.536z M83.413,250.527c-10.092-16.417-16.182-32.723-18.258-48.833
			c0.941,1.499,1.948,2.986,3.029,4.464c12.616,17.254,31.944,28.743,57.536,34.27c-6.955,14.949-11.761,29.905-14.387,44.826
			C103.805,277.891,92.866,265.9,83.413,250.527z M129,333.223v-21.047c0-12.301,1.982-24.71,5.455-37.195
			c15.433,8.131,69.774,34.761,118.064,34.761c43.901,0,91.135-24.456,107.496-33.729c3.373,12.186,4.981,24.248,4.981,36.166
			v19.839c-18,10.234-69.095,36.912-114.33,36.912C204.675,368.927,152,344.419,129,333.223z M417.268,249.515
			c-11.93,19.639-26.553,33.853-33.23,39.823c-2.438-15.898-7.405-31.902-14.881-47.958c26.781-5.307,47.176-16.959,60.669-34.751
			c2.021-2.668,3.813-5.381,5.401-8.104C433.646,215.37,427.657,232.406,417.268,249.515z"/>
		<path d="M247.379,195.258c7.852,0,14.211-6.367,14.211-14.223s-6.359-14.223-14.211-14.223c-7.848,0-14.211,6.367-14.211,14.223
			S239.531,195.258,247.379,195.258z"/>
		<path d="M247.379,261.387c7.852,0,14.211-6.363,14.211-14.219c0-7.856-6.359-14.223-14.211-14.223
			c-7.848,0-14.211,6.367-14.211,14.223C233.168,255.023,239.531,261.387,247.379,261.387z"/>
	</g>
	<g display="inline">
		<path d="M230.68,164.191c-6.281,0-11.379,5.102-11.379,11.387c0,6.289,5.098,11.391,11.379,11.391
			c6.289,0,11.379-5.102,11.379-11.391C242.059,169.293,236.969,164.191,230.68,164.191z"/>
		<path d="M376.859,222.241c-0.227-4.095-0.789-6.704-0.875-7.083l-1.357,0.31c-10.932-30.715-28.839-51.908-44.927-65.802
			c-7.429-6.415-14.87-11.663-21.821-15.923c-1.031-2.19-1.854-3.491-2.039-3.775l-2.059,1.343
			c-11.061-6.358-20.516-10.14-26.1-12.09L261.12,75.189l-9.772,3.577c-10.01,3.663-18.598,14.636-26.253,33.545
			c-3.489,8.617-5.921,16.787-7.129,21.167l-102.931,89.973l0.084,4.877c0.669,38.645,17.127,52.081,45.328,62.23
			c4.096,1.476,8.183,2.223,12.145,2.223c17.675,0,28.82-14.383,34.207-26.422l22.821-1.293l5.304,29.656
			c-39.749,48.008-24.437,116.203-23.747,119.162L213.07,422h23.153c73.382,0,110.005-38.114,127.808-70.088
			c18.992-34.113,20.744-67.898,20.811-69.321l0.01-0.295C385.258,259.279,382.139,239.386,376.859,222.241z M363.855,281.729
			c-0.129,2.119-2.232,31.707-18.527,60.604C323.372,381.26,286.663,401,236.223,401h-5.96c-2.495-18.53-5.136-64.701,23.623-96.086
			l3.511-3.829l-10.38-58.037l-48.24,2.729l-7.373,0.459l-2.108,7.064c-0.055,0.185-5.818,18.479-16.701,18.479
			c-1.53,0-3.223-0.33-5.032-0.981c-3.241-1.166-6.182-2.323-8.851-3.526l23.971-20.097l-13.171-15.709l-27.423,22.991
			c-3.429-5.288-5.229-12.131-5.792-21.699l100.417-87.774l0.788-3.229c3.459-14.173,8.58-26.544,13.274-34.423l9.043,24.04
			l1.92,5.042l5.191,1.404c0.161,0.044,10.625,2.951,24.547,10.683c1.642,6.505,2.42,16.938-3.002,30.019l18.938,7.85
			c3.194-7.709,5.065-15.569,5.596-23.293c1.21,0.988,2.421,2,3.63,3.058c5.629,4.921,10.743,10.179,15.371,15.753
			c-1.628,7.601-5.287,20.069-13.169,31.703l16.974,11.498c4.843-7.146,8.391-14.472,10.98-21.199
			c3.889,7.285,7.122,14.981,9.688,23.089c-0.271,8.249-3.221,22.05-17.866,33.484l12.612,16.16
			c4.931-3.848,8.938-7.907,12.194-12.029C363.805,270.164,363.955,275.874,363.855,281.729z"/>
	</g>
	<path display="inline" d="M453.378,345.851c-13.497-29.504-78.647-183.042-79.305-184.591c-1.675-3.946-5.487-6.56-9.771-6.698
		c-4.258-0.125-8.259,2.225-10.184,6.055l-7.177,14.282l-25.344-34.573c-1.754-2.389-4.395-3.971-7.324-4.387
		c-2.935-0.415-5.908,0.367-8.256,2.174l-42.283,32.545c-0.854,0.655-1.573,1.414-2.176,2.239
		c-12.556-1.255-23.355-0.773-27.519-0.498l-7.749-50.802l-40.941,57.92l-29.725-26.814l-6.94,11.185
		c-3.167,5.104-77.843,125.641-102.156,181.737L39.869,361H250c6.075,0,11-4.925,11-11c0-0.647-0.057-1.282-0.163-1.899
		c-0.014-0.107-0.028-0.22-0.046-0.327l-17.46-114.477c8.226-0.796,17.573,0.015,20.519,1.78
		c0.057,18.428,2.022,83.586,2.107,86.389c0.116,3.842,2.209,7.354,5.534,9.28c3.323,1.93,7.411,2.005,10.804,0.197
		c2.494-1.328,10.811-4.401,15.525-2.576c0.74,0.287,2.709,1.049,4.217,5.275c1.006,2.817,3.105,5.112,5.824,6.363
		c2.72,1.252,5.828,1.354,8.621,0.284c4.925-1.885,12.785-2.975,15.158-1.504c0.24,0.149,0.489,1.02,0.59,2.062
		c0.988,10.413,1.957,18.941,2.324,20.146h21.264c0,0,0.031-0.2,0.082,0c-0.027-0.114-0.721-13.718-1.531-22.255
		c-1.008-10.565-6.542-16.085-11.008-18.854c-7.995-4.957-17.995-4.466-25.331-3.039c-3.854-5.065-8.448-7.773-12.181-9.222
		c-6.127-2.372-12.521-2.403-18.1-1.526c-0.611-21.334-1.667-59.66-1.667-71.768c0-6.147-2.438-11.539-7.051-15.593
		c-5.653-4.968-14.142-7.562-25.944-7.932c-5.818-0.181-10.928,0.256-13.115,0.484l-2.562-16.794
		c4.147-0.175,12.242-0.329,21.276,0.516c15.576,1.454,27.416,5.275,33.34,10.76c3.173,2.939,4.582,6.198,4.566,10.616l0.107,69.802
		c0.007,3.936,2.093,7.574,5.484,9.566c3.393,1.994,7.588,2.045,11.027,0.139c0.071-0.039,7.48-3.859,14.846-1.455
		c5.328,1.742,9.86,6.598,13.479,14.434c2.23,4.835,7.578,7.411,12.753,6.135c0.065-0.015,6.931-1.35,12.446,2.978
		c6.48,5.08,9.906,16.466,9.906,32.927c0,6.141,4.979,11.119,11.119,11.119c1.639,0,3.188-0.362,4.584-0.997l23.121,0.188
		c6.95,0.058,13.902,0.109,19.117,0.147l6.316,0.044c0.253,0.002,0.51,0.003,0.771,0.003c3.511,0,7.666-0.284,10.745-4.746
		C454.629,353.486,454.99,349.374,453.378,345.851z M73.854,339c23.344-47.782,69.237-123.829,86.63-152.287l12.442,11.224
		l-12.757,21.19c-3.167,5.261-1.47,12.093,3.791,15.261c1.795,1.08,3.772,1.595,5.724,1.595c3.771,0,7.45-1.919,9.537-5.386
		l17.385-28.877c0.005-0.009,0.009-0.019,0.015-0.028l16.15-22.848L237.199,339H73.854z M398.316,339.087
		c-1.778-17.722-7.754-30.687-17.854-38.601c-7.854-6.154-16.264-7.76-22.438-7.908c-5.961-9.742-13.688-16.209-23.053-19.27
		c-5.742-1.875-11.248-2.164-16.05-1.709l-0.085-55.192c0.028-10.524-4.023-19.849-11.722-26.967
		c-4.997-4.621-11.249-8.039-17.995-10.561l21.393-16.464l29.313,39.99c2.266,3.089,5.981,4.771,9.789,4.458
		c3.815-0.319,7.192-2.601,8.911-6.023l4.582-9.12c15.766,37.079,47.408,111.356,63.283,147.587
		C418.083,339.247,407.832,339.165,398.316,339.087z"/>
	<g display="inline">
		<path d="M379.701,125h-260.4C97.63,125,80,142.361,80,163.701v173.6C80,358.64,97.63,376,119.301,376h9.021H364.42h15.281
			c21.67,0,39.299-17.36,39.299-38.699v-173.6C419,142.361,401.371,125,379.701,125z M142.322,360
			c0.489-20.213,16.099-53.466,30.952-80.275l31.71,31.282l20.141-17.448l-10.149-11.715l-9.308,8.063l-24.432-24.103
			c2.672-4.527,5.217-8.707,7.515-12.375l19.647,16.838l25.433-32.392l7.084,13.461l9.206,21.576l14.256-6.082l-9.761-22.877
			l12.387-18.944l29.604,61.403L284.34,314l14.162,6.297l6.93-15.581l0.137,0.282l7.754-15.375l19.949,12.17l11.248-11.529
			c0.99,2.433,1.983,4.893,2.976,7.368c14.812,37.129,19.069,54.381,20.149,62.164c-1.287,0.071-2.562,0.145-3.664,0.202
			L142.322,360L142.322,360z M320.325,275.74l9.788-19.409c2.294,5.213,5.019,11.487,7.935,18.37l-7.247,7.43L320.325,275.74z
			 M403,337.301c0,11.168-8.323,20.474-19.241,22.351c-1.042-9.634-5.682-28.538-21.425-68.001
			c-11.816-29.617-24.396-57.005-24.523-57.278l-6.938-15.078l-24.98,49.537l-36.776-76.279l-22.748,34.791l-9.872-18.758
			l-30.364,38.669l-20.83-17.853l-4.996,7.571c-0.613,0.93-15.185,23.08-29.122,50.187C135.129,318.375,126.827,342.8,126.391,360
			h-7.09C106.453,360,96,349.817,96,337.301v-173.6C96,151.184,106.453,141,119.301,141h260.4C392.548,141,403,151.184,403,163.701
			V337.301z"/>
		<path d="M171.531,158.979c-16.603,0-30.109,13.515-30.109,30.127c0,16.613,13.507,30.129,30.109,30.129
			c16.602,0,30.109-13.516,30.109-30.129C201.641,172.494,188.134,158.979,171.531,158.979z M171.531,203.734
			c-8.056,0-14.609-6.562-14.609-14.629c0-8.065,6.554-14.627,14.609-14.627c8.055,0,14.609,6.562,14.609,14.627
			C186.141,197.172,179.587,203.734,171.531,203.734z"/>
	</g>
</g>
<path fill="#FFFFFF" d="M249.999,212.15c-20.804,0-37.744,16.932-37.744,37.736c0,20.81,16.94,37.747,37.744,37.747
	c20.812,0,37.737-16.938,37.739-37.747C287.738,229.082,270.811,212.15,249.999,212.15z"/>
<path fill="#FFFFFF" d="M250,13.75C119.522,13.75,13.75,119.522,13.75,250S119.522,486.25,250,486.25S486.25,380.478,486.25,250
	S380.478,13.75,250,13.75z M376.889,312.756c0,35.306-28.712,64.02-64.018,64.02H187.129c-35.3,0-64.017-28.713-64.017-64.019
	V187.016c0-35.301,28.717-64.017,64.017-64.017h125.742c35.306,0,64.018,28.716,64.018,64.017V312.756z"/>
<path fill="#FFFFFF" d="M312.871,150.619H187.129c-20.067,0-36.398,16.329-36.398,36.398v125.741
	c0,20.072,16.33,36.403,36.398,36.403h125.742c20.07,0,36.402-16.331,36.402-36.403V187.017
	C349.273,166.95,332.941,150.619,312.871,150.619z M249.999,315.247c-36.036,0-65.358-29.322-65.358-65.361
	c0-36.036,29.322-65.358,65.358-65.358c36.038,0,65.36,29.322,65.362,65.358C315.361,285.925,286.038,315.247,249.999,315.247z
	 M317.463,198.043c-8.531,0-15.47-6.938-15.47-15.464c0-8.527,6.938-15.465,15.47-15.465c8.526,0,15.464,6.938,15.464,15.465
	C332.927,191.106,325.989,198.043,317.463,198.043z"/>
</svg>
