<?xml version="1.0" encoding="UTF-8"?>
<svg width="111px" height="129px" viewBox="0 0 111 129" version="1.1" xmlns="http://www.w3.org/2000/svg" xmlns:xlink="http://www.w3.org/1999/xlink">
    <!-- Generator: Sketch 50.2 (55047) - http://www.bohemiancoding.com/sketch -->
    <title>logo</title>
    <desc>Created with Sketch.</desc>
    <defs></defs>
    <g id="v2" stroke="none" stroke-width="1" fill="none" fill-rule="evenodd">
        <g id="HOME-V2" transform="translate(-82.000000, -71.000000)">
            <g id="header" transform="translate(-272.000000, -857.000000)">
                <g id="logo" transform="translate(354.000000, 928.000000)">
                    <path d="M11.2590183,119.403628 C11.2590183,115.75737 8.61305777,113.344671 4.79922499,113.344671 L1.4598403,113.344671 C0.656928135,113.344671 0,113.997732 0,114.795918 L0,123.993197 C0,124.791383 0.656928135,125.444444 1.4598403,125.444444 L4.79922499,125.444444 C8.61305777,125.444444 11.2590183,123.049887 11.2590183,119.403628 Z M8.61305777,119.403628 C8.61305777,121.453515 7.20796148,123.176871 4.79922499,123.176871 L2.59121653,123.176871 L2.59121653,115.612245 L4.79922499,115.612245 C7.2992015,115.612245 8.61305777,117.263039 8.61305777,119.403628 Z M14.7183185,113 C13.9701503,113 13.3314702,113.598639 13.3314702,114.360544 C13.3314702,115.122449 13.9701503,115.739229 14.7183185,115.739229 C15.4847346,115.739229 16.1051667,115.122449 16.1051667,114.360544 C16.1051667,113.598639 15.4847346,113 14.7183185,113 Z M15.8861907,124.410431 L15.8861907,117.698413 C15.8861907,117.081633 15.3752466,116.573696 14.7548145,116.573696 C14.0796383,116.573696 13.5686942,117.081633 13.5686942,117.698413 L13.5686942,124.410431 C13.5686942,125.045351 14.0796383,125.553288 14.7183185,125.553288 C15.3752466,125.553288 15.8861907,125.045351 15.8861907,124.410431 Z M26.5169563,117.734694 C26.5169563,117.154195 26.0607562,116.591837 25.3490841,116.591837 C24.892884,116.591837 24.4549319,116.863946 24.2906999,117.31746 L22.2286754,122.777778 L20.166651,117.29932 C20.002419,116.863946 19.5827149,116.591837 19.1265148,116.591837 C18.4148426,116.591837 17.9403946,117.172336 17.9403946,117.716553 C17.9403946,117.861678 17.9768906,118.006803 18.0316346,118.133787 L20.6046031,124.464853 C20.8600752,125.117914 21.5170033,125.553288 22.2286754,125.553288 L22.2651714,125.553288 C22.9585956,125.553288 23.5972757,125.117914 23.8709958,124.464853 L26.4439643,118.133787 C26.4987083,118.006803 26.5169563,117.861678 26.5169563,117.734694 Z M29.7390324,113 C28.9908643,113 28.3521841,113.598639 28.3521841,114.360544 C28.3521841,115.122449 28.9908643,115.739229 29.7390324,115.739229 C30.5054486,115.739229 31.1258807,115.122449 31.1258807,114.360544 C31.1258807,113.598639 30.5054486,113 29.7390324,113 Z M30.9069047,124.410431 L30.9069047,117.698413 C30.9069047,117.081633 30.3959605,116.573696 29.7755284,116.573696 C29.1003523,116.573696 28.5894082,117.081633 28.5894082,117.698413 L28.5894082,124.410431 C28.5894082,125.045351 29.1003523,125.553288 29.7390324,125.553288 C30.3959605,125.553288 30.9069047,125.045351 30.9069047,124.410431 Z M41.9938704,124.410431 L41.9938704,119.258503 C41.9938704,117.553288 41.0632222,116.464853 39.1289338,116.464853 C37.6873415,116.464853 36.6107093,117.154195 36.0450211,117.825397 L36.0450211,117.698413 C36.0450211,117.081633 35.534077,116.573696 34.9136449,116.573696 C34.2384688,116.573696 33.7275247,117.081633 33.7275247,117.698413 L33.7275247,124.410431 C33.7275247,125.045351 34.2384688,125.553288 34.8771489,125.553288 C35.534077,125.553288 36.0450211,125.045351 36.0450211,124.410431 L36.0450211,119.548753 C36.4282292,119.022676 37.1399014,118.514739 38.0523016,118.514739 C39.0376938,118.514739 39.6763739,118.931973 39.6763739,120.147392 L39.6763739,124.410431 C39.6763739,125.045351 40.187318,125.553288 40.8259981,125.553288 C41.4829263,125.553288 41.9938704,125.045351 41.9938704,124.410431 Z M53.1903241,124.845805 L53.1903241,117.716553 C53.1903241,117.081633 52.67938,116.573696 52.0406999,116.573696 C51.3655237,116.573696 50.8545796,117.081633 50.8545796,117.716553 L50.8545796,117.807256 C50.1429075,116.918367 49.1940113,116.464853 48.1356271,116.464853 C45.9093706,116.464853 44.2488023,118.061224 44.2488023,120.927438 C44.2488023,123.848073 45.9276186,125.390023 48.1356271,125.390023 C49.2122593,125.390023 50.1611555,124.882086 50.8545796,124.011338 L50.8545796,124.900227 C50.8545796,126.623583 49.5407233,127.113379 48.4275951,127.113379 C47.642931,127.113379 46.9495068,126.950113 46.3290747,126.569161 C46.1648426,126.478458 46.0006106,126.442177 45.8363786,126.442177 C45.3254345,126.442177 44.8692344,126.84127 44.8692344,127.403628 C44.8692344,127.585034 44.9239784,127.76644 45.0152184,127.911565 C45.5444105,128.727891 47.3509629,129 48.4275951,129 C50.5991076,129 53.1903241,128.183673 53.1903241,124.845805 Z M50.8545796,122.342404 C50.4713715,122.904762 49.6319634,123.340136 48.8655472,123.340136 C47.5516909,123.340136 46.6392907,122.433107 46.6392907,120.927438 C46.6392907,119.421769 47.5516909,118.514739 48.8655472,118.514739 C49.6319634,118.514739 50.4713715,118.931973 50.8545796,119.512472 L50.8545796,122.342404 Z M63.8497651,124.283447 L63.8497651,114.505669 C63.8497651,113.816327 63.265829,113.235828 62.5724049,113.235828 C61.8424847,113.235828 61.2585486,113.816327 61.2585486,114.505669 L61.2585486,124.283447 C61.2585486,124.972789 61.8424847,125.553288 62.5359089,125.553288 C63.265829,125.553288 63.8497651,124.972789 63.8497651,124.283447 Z M73.7141146,122.85034 C73.7141146,119.312925 68.4951855,120.401361 68.4951855,119.095238 C68.4951855,118.605442 69.0426256,118.22449 69.8820338,118.22449 C70.593706,118.22449 71.3053781,118.424036 71.8710662,118.750567 C71.9988023,118.823129 72.1630343,118.85941 72.3090183,118.85941 C72.7834664,118.85941 73.2214185,118.478458 73.2214185,117.988662 C73.2214185,117.825397 73.1666745,117.662132 73.0754345,117.535147 C72.5827384,116.827664 71.0134101,116.464853 69.8637858,116.464853 C67.5462893,116.464853 66.2506811,117.752834 66.2506811,119.222222 C66.2506811,122.668934 71.4878581,121.489796 71.4878581,122.941043 C71.4878581,123.485261 71.0134101,123.884354 70.0097698,123.884354 C69.2433537,123.884354 68.3309535,123.575964 67.6375294,123.176871 C67.4915453,123.086168 67.3273133,123.049887 67.1630813,123.049887 C66.6703852,123.049887 66.1959371,123.46712 66.1959371,124.011338 C66.1959371,124.192744 66.2506811,124.356009 66.3601691,124.501134 C66.9076092,125.281179 68.7506576,125.662132 69.9002818,125.662132 C72.3455143,125.662132 73.7141146,124.446712 73.7141146,122.85034 Z M78.268295,124.410431 L78.268295,114.360544 C78.268295,113.743764 77.7573509,113.235828 77.1369187,113.235828 C76.4617426,113.235828 75.9507985,113.743764 75.9507985,114.360544 L75.9507985,124.410431 C75.9507985,125.045351 76.4617426,125.553288 77.1004227,125.553288 C77.7573509,125.553288 78.268295,125.045351 78.268295,124.410431 Z M88.6983326,124.410431 L88.6983326,119.78458 C88.6983326,117.263039 86.8552842,116.464853 84.8480038,116.464853 C83.8261155,116.464853 81.8553311,116.827664 81.307891,117.698413 C81.234899,117.825397 81.180155,117.988662 81.180155,118.151927 C81.180155,118.696145 81.6363551,119.040816 82.0560592,119.040816 C82.2020432,119.040816 82.3480272,118.986395 82.4757633,118.913832 C83.0779474,118.514739 83.7531235,118.351474 84.4465477,118.351474 C85.6144199,118.351474 86.3808361,118.931973 86.3808361,119.820862 L86.3808361,121 C85.7969,120.310658 84.7567637,119.929705 83.5888915,119.929705 C82.1837952,119.929705 80.5232269,120.709751 80.5232269,122.759637 C80.5232269,124.718821 82.1837952,125.662132 83.5888915,125.662132 C84.7385157,125.662132 85.7786519,125.244898 86.3808361,124.537415 C86.3808361,125.408163 87.2019962,125.553288 87.3844763,125.553288 L87.5669563,125.553288 C88.1873884,125.553288 88.6983326,125.045351 88.6983326,124.410431 Z M86.3808361,123.340136 C85.997628,123.848073 85.2677078,124.102041 84.5195397,124.102041 C83.6071395,124.102041 82.8589713,123.630385 82.8589713,122.814059 C82.8589713,121.961451 83.6071395,121.489796 84.5195397,121.489796 C85.2677078,121.489796 85.997628,121.743764 86.3808361,122.251701 L86.3808361,123.340136 Z M99.7852983,124.410431 L99.7852983,119.258503 C99.7852983,117.553288 98.8546501,116.464853 96.9203617,116.464853 C95.4787694,116.464853 94.4021372,117.154195 93.836449,117.825397 L93.836449,117.698413 C93.836449,117.081633 93.3255049,116.573696 92.7050728,116.573696 C92.0298967,116.573696 91.5189526,117.081633 91.5189526,117.698413 L91.5189526,124.410431 C91.5189526,125.045351 92.0298967,125.553288 92.6685768,125.553288 C93.3255049,125.553288 93.836449,125.045351 93.836449,124.410431 L93.836449,119.548753 C94.2196571,119.022676 94.9313293,118.514739 95.8437295,118.514739 C96.8291217,118.514739 97.4678018,118.931973 97.4678018,120.147392 L97.4678018,124.410431 C97.4678018,125.045351 97.9787459,125.553288 98.617426,125.553288 C99.2743542,125.553288 99.7852983,125.045351 99.7852983,124.410431 Z M111,124.410431 L111,114.378685 C111,113.743764 110.489056,113.235828 109.850376,113.235828 C109.1752,113.235828 108.664256,113.743764 108.664256,114.378685 L108.664256,117.807256 C107.970831,116.918367 106.985439,116.464853 105.945303,116.464853 C103.700798,116.464853 102.04023,118.206349 102.04023,121.072562 C102.04023,123.993197 103.719047,125.662132 105.945303,125.662132 C107.003687,125.662132 107.970831,125.190476 108.664256,124.319728 L108.664256,124.410431 C108.664256,125.045351 109.1752,125.553288 109.81388,125.553288 C110.489056,125.553288 111,125.045351 111,124.410431 Z M108.664256,122.614512 C108.281047,123.195011 107.441639,123.612245 106.656975,123.612245 C105.343119,123.612245 104.430719,122.578231 104.430719,121.072562 C104.430719,119.548753 105.343119,118.514739 106.656975,118.514739 C107.441639,118.514739 108.281047,118.931973 108.664256,119.512472 L108.664256,122.614512 Z" id="Diving-Island" fill="#3A98CB"></path>
                    <path d="M52.4148365,101.974524 C49.2677009,102.73017 46.0327551,103.443121 42.7822218,104.343312 C32.2169493,107.270218 24.1940136,100.046573 23.0041605,89.9526061 C21.7400064,79.2264481 12.1884472,75.6478043 13.1808575,64.8516886 C14.063635,55.2499973 21.1663829,45.5089051 16.7337902,35.8717207 C14.4273456,30.85843 11.5005147,27.5421275 12.0725794,21.7150645 C12.8005202,14.3103529 20.3890815,12.3093576 26.4474604,11.9647132 C30.8213398,11.7142029 35.0014135,10.7044462 38.7086634,8.41590421 C42.3223877,6.18446005 44.9073307,1.84245449 49.0822085,0.626939847 C53.3178779,-0.607093009 58.19108,0.234971095 62.4412978,0.985472944 C73.3100088,2.90622271 82.6464592,9.40765716 91.0024498,16.0335751 C97.2161851,20.9594187 99.7652767,27.0056138 95.5820855,34.0615658 C89.9185923,43.6128463 103.814415,49.9923692 100.474512,58.7303918 C99.2181521,62.0184026 95.3103417,64.5060153 92.8308748,66.9092673 C89.6058012,70.0357582 86.5682984,73.3422873 83.9521802,76.9620827 C79.8962877,82.5761863 76.8047478,89.054473 71.4550849,93.7040866 C66.1464693,98.3166638 59.2120675,100.341836 52.4148365,101.974524" id="Combined-Shape" fill="#249D87"></path>
                    <path d="M48.251959,82.6352002 C41.9275517,83.175829 34.4060171,80.1928542 33.5970209,65.7054422 C33.1647249,57.957115 30.8348989,51.2139151 30.7039631,43.4275227 C30.5953695,36.9384337 28.2317703,27.1134952 34.588392,23.336295 C38.1304133,21.2313919 42.640944,22.305448 46.3684578,23.221585 C51.659927,24.5224891 55.5942362,24.1778447 60.903891,23.4494618 C70.5972973,22.1202659 79.2879017,35.107703 80.5037341,43.8976794 C81.3371509,49.9238132 81.2976624,64.4245994 70.7069301,73.0684878 C65.4772917,77.3364205 58.9024437,81.7247216 48.251959,82.6352002" id="Fill-3" fill="#CCE5E7"></path>
                    <path d="M63.1210527,45.2987374 C63.1242051,45.3059622 66.9302641,56.8052822 58.6776732,60.8501446 C50.4229806,64.8960392 44.3592413,65.9771806 42.7462373,58.4097064 C42.0973578,55.3659965 42.5008715,52.7077818 43.0735668,48.2118847 C43.4303191,45.4055614 40.5631651,41.70749 42.97479,39.5648172 C45.2466562,37.5459984 51.6135562,37.9882601 54.5185396,38.1735249 C58.1202148,38.405751 62.0003564,41.912881 63.1210527,45.2987374" id="Fill-4" fill="#3A98CB"></path>
                    <path d="M92.3399992,83.7202424 C93.2708644,85.9872461 93.2962469,88.7373285 91.9038341,90.2975859 C90.8507183,91.4776626 89.2816639,92.1676203 88.4419685,93.5551175 C87.547364,95.0308903 87.7545683,96.9653713 86.8775761,98.4958424 C85.9741654,100.069639 84.4911007,100.97839 82.8852675,101.622856 C78.6976689,103.306591 75.807169,99.0395767 77.4844877,95.0211421 C78.8059331,91.8545939 81.6285735,89.8708303 83.4773538,87.0974605 C84.8340238,85.0606233 85.3364942,79.4310238 88.5735432,80.0467866 C90.2394657,80.3641455 91.5862936,81.8837853 92.3399992,83.7202424" id="Fill-5" fill="#249D87"></path>
                    <path d="M100.840735,74.2000872 C100.979153,74.3416438 101.096231,74.4955544 101.186779,74.6623338 C101.613566,75.4468147 102.226064,76.6904536 101.915201,77.5763404 C101.543781,78.6336394 99.8550873,79.437166 98.7604356,79.753738 C97.3162797,80.1701718 96.5411417,80.0847231 95.2694309,79.2950947 C94.1765094,78.6176821 93.1066575,77.7590771 93.0063048,76.5092612 C92.8892267,75.0206007 94.4245074,73.7990961 95.7977244,73.2601515 C97.2280385,72.6970137 99.7310883,73.0650608 100.840735,74.2000872" id="Fill-6" fill="#249D87"></path>
                </g>
            </g>
        </g>
    </g>
</svg>