<?xml version="1.0" encoding="UTF-8" standalone="no"?>
<svg width="70px" height="82px" viewBox="0 0 70 82" version="1.1" xmlns="http://www.w3.org/2000/svg" xmlns:xlink="http://www.w3.org/1999/xlink">
    <!-- Generator: Sketch 43.1 (39012) - http://www.bohemiancoding.com/sketch -->
    <title>logo</title>
    <desc>Created with Sketch.</desc>
    <defs></defs>
    <g id="Page-1" stroke="none" stroke-width="1" fill="none" fill-rule="evenodd">
        <g id="home_v1" transform="translate(-135.000000, -69.000000)" fill="#FFFFFF">
            <g id="header" transform="translate(-51.000000, -398.000000)">
                <g id="logo" transform="translate(186.000000, 467.000000)">
                    <path d="M7.16518692,75.6826964 C7.16518692,73.3935298 5.50514019,71.8788076 3.11238318,71.8788076 L1.01728972,71.8788076 C0.513551402,71.8788076 0.101401869,72.2888076 0.101401869,72.7899187 L0.101401869,78.5640853 C0.101401869,79.0651964 0.513551402,79.4751964 1.01728972,79.4751964 L3.11238318,79.4751964 C5.50514019,79.4751964 7.16518692,77.9718631 7.16518692,75.6826964 Z M5.50514019,75.6826964 C5.50514019,76.9696409 4.62359813,78.0515853 3.11238318,78.0515853 L1.7271028,78.0515853 L1.7271028,73.3024187 L3.11238318,73.3024187 C4.68084112,73.3024187 5.50514019,74.3388076 5.50514019,75.6826964 Z M9.33551402,71.6624187 C8.8661215,71.6624187 8.46542056,72.038252 8.46542056,72.5165853 C8.46542056,72.9949187 8.8661215,73.3821409 9.33551402,73.3821409 C9.81635514,73.3821409 10.2056075,72.9949187 10.2056075,72.5165853 C10.2056075,72.038252 9.81635514,71.6624187 9.33551402,71.6624187 Z M10.0682243,78.8260298 L10.0682243,74.6121409 C10.0682243,74.2249187 9.74766355,73.9060298 9.35841121,73.9060298 C8.93481308,73.9060298 8.61425234,74.2249187 8.61425234,74.6121409 L8.61425234,78.8260298 C8.61425234,79.2246409 8.93481308,79.5435298 9.33551402,79.5435298 C9.74766355,79.5435298 10.0682243,79.2246409 10.0682243,78.8260298 Z M16.7378505,74.6349187 C16.7378505,74.2704742 16.4516355,73.9174187 16.0051402,73.9174187 C15.7189252,73.9174187 15.4441589,74.088252 15.3411215,74.3729742 L14.0474299,77.8010298 L12.7537383,74.3615853 C12.6507009,74.088252 12.3873832,73.9174187 12.1011682,73.9174187 C11.6546729,73.9174187 11.3570093,74.2818631 11.3570093,74.6235298 C11.3570093,74.7146409 11.3799065,74.805752 11.4142523,74.8854742 L13.0285047,78.8601964 C13.188785,79.2701964 13.6009346,79.5435298 14.0474299,79.5435298 L14.0703271,79.5435298 C14.5053738,79.5435298 14.9060748,79.2701964 15.0778037,78.8601964 L16.6920561,74.8854742 C16.7264019,74.805752 16.7378505,74.7146409 16.7378505,74.6349187 Z M18.7593458,71.6624187 C18.2899533,71.6624187 17.8892523,72.038252 17.8892523,72.5165853 C17.8892523,72.9949187 18.2899533,73.3821409 18.7593458,73.3821409 C19.2401869,73.3821409 19.6294393,72.9949187 19.6294393,72.5165853 C19.6294393,72.038252 19.2401869,71.6624187 18.7593458,71.6624187 Z M19.4920561,78.8260298 L19.4920561,74.6121409 C19.4920561,74.2249187 19.1714953,73.9060298 18.782243,73.9060298 C18.3586449,73.9060298 18.0380841,74.2249187 18.0380841,74.6121409 L18.0380841,78.8260298 C18.0380841,79.2246409 18.3586449,79.5435298 18.7593458,79.5435298 C19.1714953,79.5435298 19.4920561,79.2246409 19.4920561,78.8260298 Z M26.4478972,78.8260298 L26.4478972,75.5915853 C26.4478972,74.5210298 25.8640187,73.8376964 24.6504673,73.8376964 C23.746028,73.8376964 23.0705607,74.2704742 22.7156542,74.6918631 L22.7156542,74.6121409 C22.7156542,74.2249187 22.3950935,73.9060298 22.0058411,73.9060298 C21.582243,73.9060298 21.2616822,74.2249187 21.2616822,74.6121409 L21.2616822,78.8260298 C21.2616822,79.2246409 21.582243,79.5435298 21.9829439,79.5435298 C22.3950935,79.5435298 22.7156542,79.2246409 22.7156542,78.8260298 L22.7156542,75.7738076 C22.9560748,75.4435298 23.4025701,75.1246409 23.975,75.1246409 C24.5932243,75.1246409 24.9939252,75.3865853 24.9939252,76.1496409 L24.9939252,78.8260298 C24.9939252,79.2246409 25.314486,79.5435298 25.7151869,79.5435298 C26.1273364,79.5435298 26.4478972,79.2246409 26.4478972,78.8260298 Z M33.4724299,79.0993631 L33.4724299,74.6235298 C33.4724299,74.2249187 33.1518692,73.9060298 32.7511682,73.9060298 C32.3275701,73.9060298 32.0070093,74.2249187 32.0070093,74.6235298 L32.0070093,74.6804742 C31.560514,74.1224187 30.9651869,73.8376964 30.3011682,73.8376964 C28.9044393,73.8376964 27.8626168,74.8399187 27.8626168,76.6393631 C27.8626168,78.4729742 28.9158879,79.4410298 30.3011682,79.4410298 C30.9766355,79.4410298 31.5719626,79.1221409 32.0070093,78.5754742 L32.0070093,79.1335298 C32.0070093,80.2154742 31.1827103,80.5229742 30.4843458,80.5229742 C29.9920561,80.5229742 29.5570093,80.4204742 29.167757,80.1813076 C29.0647196,80.1243631 28.9616822,80.1015853 28.8586449,80.1015853 C28.5380841,80.1015853 28.2518692,80.3521409 28.2518692,80.7051964 C28.2518692,80.8190853 28.286215,80.9329742 28.3434579,81.0240853 C28.6754673,81.5365853 29.8088785,81.7074187 30.4843458,81.7074187 C31.846729,81.7074187 33.4724299,81.1949187 33.4724299,79.0993631 Z M32.0070093,77.5276964 C31.7665888,77.880752 31.2399533,78.1540853 30.7591121,78.1540853 C29.9348131,78.1540853 29.3623832,77.5846409 29.3623832,76.6393631 C29.3623832,75.6940853 29.9348131,75.1246409 30.7591121,75.1246409 C31.2399533,75.1246409 31.7665888,75.3865853 32.0070093,75.7510298 L32.0070093,77.5276964 Z M40.1600467,78.7463076 L40.1600467,72.6076964 C40.1600467,72.1749187 39.7936916,71.8104742 39.3586449,71.8104742 C38.9007009,71.8104742 38.5343458,72.1749187 38.5343458,72.6076964 L38.5343458,78.7463076 C38.5343458,79.1790853 38.9007009,79.5435298 39.3357477,79.5435298 C39.7936916,79.5435298 40.1600467,79.1790853 40.1600467,78.7463076 Z M46.3488318,77.8465853 C46.3488318,75.625752 43.0745327,76.3090853 43.0745327,75.4890853 C43.0745327,75.1815853 43.4179907,74.9424187 43.9446262,74.9424187 C44.3911215,74.9424187 44.8376168,75.0676964 45.1925234,75.2726964 C45.2726636,75.318252 45.3757009,75.3410298 45.4672897,75.3410298 C45.7649533,75.3410298 46.0397196,75.1018631 46.0397196,74.7943631 C46.0397196,74.6918631 46.0053738,74.5893631 45.9481308,74.5096409 C45.6390187,74.0654742 44.6544393,73.8376964 43.9331776,73.8376964 C42.4792056,73.8376964 41.6663551,74.6463076 41.6663551,75.5688076 C41.6663551,77.7326964 44.9521028,76.9924187 44.9521028,77.9035298 C44.9521028,78.2451964 44.6544393,78.495752 44.0247664,78.495752 C43.5439252,78.495752 42.9714953,78.3021409 42.5364486,78.0515853 C42.4448598,77.9946409 42.3418224,77.9718631 42.238785,77.9718631 C41.9296729,77.9718631 41.6320093,78.2338076 41.6320093,78.5754742 C41.6320093,78.6893631 41.6663551,78.7918631 41.7350467,78.8829742 C42.0785047,79.3726964 43.2348131,79.6118631 43.9560748,79.6118631 C45.4901869,79.6118631 46.3488318,78.8488076 46.3488318,77.8465853 Z M49.2060748,78.8260298 L49.2060748,72.5165853 C49.2060748,72.1293631 48.885514,71.8104742 48.4962617,71.8104742 C48.0726636,71.8104742 47.7521028,72.1293631 47.7521028,72.5165853 L47.7521028,78.8260298 C47.7521028,79.2246409 48.0726636,79.5435298 48.4733645,79.5435298 C48.885514,79.5435298 49.2060748,79.2246409 49.2060748,78.8260298 Z M55.7497664,78.8260298 L55.7497664,75.9218631 C55.7497664,74.3388076 54.5934579,73.8376964 53.3341121,73.8376964 C52.6929907,73.8376964 51.4565421,74.0654742 51.1130841,74.6121409 C51.0672897,74.6918631 51.0329439,74.7943631 51.0329439,74.8968631 C51.0329439,75.2385298 51.3191589,75.4549187 51.5824766,75.4549187 C51.6740654,75.4549187 51.7656542,75.420752 51.8457944,75.3751964 C52.2235981,75.1246409 52.6471963,75.0221409 53.082243,75.0221409 C53.8149533,75.0221409 54.2957944,75.3865853 54.2957944,75.9446409 L54.2957944,76.6849187 C53.9294393,76.2521409 53.2768692,76.0129742 52.5441589,76.0129742 C51.6626168,76.0129742 50.6207944,76.5026964 50.6207944,77.7896409 C50.6207944,79.0196409 51.6626168,79.6118631 52.5441589,79.6118631 C53.2654206,79.6118631 53.9179907,79.3499187 54.2957944,78.905752 C54.2957944,79.4524187 54.8109813,79.5435298 54.9254673,79.5435298 L55.0399533,79.5435298 C55.4292056,79.5435298 55.7497664,79.2246409 55.7497664,78.8260298 Z M54.2957944,78.1540853 C54.0553738,78.4729742 53.5974299,78.6324187 53.1280374,78.6324187 C52.5556075,78.6324187 52.086215,78.3363076 52.086215,77.8238076 C52.086215,77.2885298 52.5556075,76.9924187 53.1280374,76.9924187 C53.5974299,76.9924187 54.0553738,77.1518631 54.2957944,77.470752 L54.2957944,78.1540853 Z M62.7056075,78.8260298 L62.7056075,75.5915853 C62.7056075,74.5210298 62.121729,73.8376964 60.9081776,73.8376964 C60.0037383,73.8376964 59.328271,74.2704742 58.9733645,74.6918631 L58.9733645,74.6121409 C58.9733645,74.2249187 58.6528037,73.9060298 58.2635514,73.9060298 C57.8399533,73.9060298 57.5193925,74.2249187 57.5193925,74.6121409 L57.5193925,78.8260298 C57.5193925,79.2246409 57.8399533,79.5435298 58.2406542,79.5435298 C58.6528037,79.5435298 58.9733645,79.2246409 58.9733645,78.8260298 L58.9733645,75.7738076 C59.213785,75.4435298 59.6602804,75.1246409 60.2327103,75.1246409 C60.8509346,75.1246409 61.2516355,75.3865853 61.2516355,76.1496409 L61.2516355,78.8260298 C61.2516355,79.2246409 61.5721963,79.5435298 61.9728972,79.5435298 C62.3850467,79.5435298 62.7056075,79.2246409 62.7056075,78.8260298 Z M69.7415888,78.8260298 L69.7415888,72.5279742 C69.7415888,72.1293631 69.421028,71.8104742 69.0203271,71.8104742 C68.596729,71.8104742 68.2761682,72.1293631 68.2761682,72.5279742 L68.2761682,74.6804742 C67.8411215,74.1224187 67.2228972,73.8376964 66.5703271,73.8376964 C65.1621495,73.8376964 64.1203271,74.9310298 64.1203271,76.7304742 C64.1203271,78.5640853 65.1735981,79.6118631 66.5703271,79.6118631 C67.2343458,79.6118631 67.8411215,79.315752 68.2761682,78.7690853 L68.2761682,78.8260298 C68.2761682,79.2246409 68.596729,79.5435298 68.9974299,79.5435298 C69.421028,79.5435298 69.7415888,79.2246409 69.7415888,78.8260298 Z M68.2761682,77.6985298 C68.0357477,78.0629742 67.5091121,78.3249187 67.0168224,78.3249187 C66.1925234,78.3249187 65.6200935,77.675752 65.6200935,76.7304742 C65.6200935,75.7738076 66.1925234,75.1246409 67.0168224,75.1246409 C67.5091121,75.1246409 68.0357477,75.3865853 68.2761682,75.7510298 L68.2761682,77.6985298 Z" id="Diving-Island"></path>
                    <path d="M32.3120938,64.5072496 C30.3308322,64.9852575 28.2942901,65.4362575 26.247935,66.005702 C19.5966266,67.8572099 14.5458322,63.2876623 13.7967667,56.9024004 C13.0009256,50.1172258 6.98779478,47.8534401 7.61256114,41.0240115 C8.1683088,34.9501544 12.6398041,28.7881147 9.84929011,22.6918052 C8.39728076,19.5204877 6.55471067,17.4226544 6.91485085,13.7365591 C7.37312188,9.05247182 12.1504583,7.78667817 15.964477,7.5686623 C18.7180284,7.41019404 21.3495705,6.77144007 23.683449,5.3237496 C25.958449,3.91217817 27.5857854,1.16550357 30.2140565,0.396590868 C32.8805985,-0.384036116 35.9484957,0.148638487 38.6241966,0.623392456 C45.4665331,1.8384242 51.3442434,5.95111468 56.6047107,10.1425512 C60.5165331,13.2585512 62.1212995,17.0832655 59.4877948,21.5467337 C55.9223742,27.588702 64.6704116,31.6242734 62.5677948,37.1517893 C61.7768602,39.2317258 59.31672,40.8053448 57.7557854,42.3255988 C55.7254583,44.3033607 53.8132153,46.3950115 52.1662527,48.684829 C49.6128882,52.2362099 47.6666266,56.3342575 44.2987761,59.2755194 C40.9567667,62.1933528 36.5912527,63.4744401 32.3120938,64.5072496 Z M29.6913775,52.273541 C36.3963308,51.6975886 40.5354897,48.9216283 43.8277794,46.2218109 C50.4951158,40.7538426 50.5199757,31.5809061 49.9953028,27.7688823 C49.2298822,22.2085013 43.7587607,13.9928823 37.6563308,14.8337077 C34.3136672,15.2944696 31.8368448,15.5124855 28.5056299,14.6895569 C26.1589943,14.1100251 23.3194149,13.4305966 21.0895551,14.7621204 C17.0877794,17.1515093 18.57577,23.3665886 18.6441345,27.4714696 C18.7265644,32.3970013 20.1932934,36.6626283 20.4654429,41.5640807 C20.974742,50.7285569 25.7098822,52.6155331 29.6913775,52.273541 Z" id="Combined-Shape"></path>
                    <path d="M39.6446306,28.681534 C39.6465932,28.6860896 42.0161259,35.936907 36.8783222,38.4873673 C31.7392101,41.0384784 27.9641166,41.7201848 26.959911,36.9485657 C26.555939,35.0293753 26.807154,33.3532562 27.163696,30.5183991 C27.3857988,28.7488911 25.6007988,26.4170975 27.1022007,25.0660499 C28.5165932,23.7930975 32.480425,24.0719626 34.2889764,24.18878 C36.5312661,24.3352086 38.9469203,26.5466054 39.6446306,28.681534" id="Fill-4"></path>
                    <path d="M58.4249064,53.6479765 C59.0127101,55.0100876 59.0287381,56.6624526 58.1494858,57.5999209 C57.4844858,58.3089606 56.4936914,58.7235161 55.9634578,59.5571828 C55.3985512,60.4438892 55.5293923,61.6062066 54.9756073,62.525778 C54.40514,63.4713812 53.4686447,64.0173971 52.454626,64.4046193 C49.8103269,65.416278 47.9850933,62.8524765 49.0442522,60.438032 C49.8786914,58.5354368 51.6610746,57.3435082 52.8285045,55.6771511 C53.6851867,54.4533336 54.0024765,51.0708336 56.0465419,51.4408098 C57.0985045,51.6314923 57.9489718,52.5445558 58.4249064,53.6479765" id="Fill-5"></path>
                    <path d="M62.6712394,47.2903738 C62.7497441,47.379858 62.8161459,47.4771516 62.8675011,47.5825802 C63.1095571,48.078485 63.4569403,48.8646437 63.2806319,49.4246516 C63.0699777,50.0930167 62.1122207,50.6009611 61.4913796,50.8010802 C60.6723142,51.0643262 60.232688,51.0103103 59.5114263,50.5111516 C58.8915665,50.0829294 58.2847908,49.5401675 58.2278749,48.750104 C58.161473,47.8090564 59.0322207,47.0368897 59.8110525,46.6961992 C60.6222674,46.3402151 62.0418936,46.5728738 62.6712394,47.2903738" id="Fill-6"></path>
                </g>
            </g>
        </g>
    </g>
</svg>