<?xml version="1.0" encoding="UTF-8"?>
<svg width="21px" height="16px" viewBox="0 0 21 16" version="1.1" xmlns="http://www.w3.org/2000/svg" xmlns:xlink="http://www.w3.org/1999/xlink">
    <!-- Generator: Sketch 52.6 (67491) - http://www.bohemiancoding.com/sketch -->
    <title>quotes</title>
    <desc>Created with Sketch.</desc>
    <g id="Page-1" stroke="none" stroke-width="1" fill="none" fill-rule="evenodd">
        <g id="quotes" transform="translate(10.000000, 8.000000) rotate(180.000000) translate(-10.000000, -8.000000) translate(-1.000000, 0.000000)" fill="#A35ABF" fill-rule="nonzero">
            <path d="M5.7178683,0 L8.9278997,2.60815047 C7.322884,3.41065831 5.2163009,5.5673981 4.7147335,7.3730408 C4.9153605,7.322884 5.3667712,7.2225705 5.8683386,7.2225705 C7.9749216,7.2225705 9.7304075,8.8777429 9.7304075,11.3354232 C9.7304075,13.8934169 7.6238245,16 5.1159875,16 C2.4075235,16 0,13.8432602 0,10.1818182 C0,6.0689655 2.2068966,2.50783699 5.7178683,0 Z M17.0031348,0 L20.2131661,2.60815047 C18.6081505,3.41065831 16.5517241,5.5673981 16,7.3730408 C16.200627,7.322884 16.6520376,7.2225705 17.153605,7.2225705 C19.3103448,7.2225705 21.015674,8.8777429 21.015674,11.3354232 C21.015674,13.8934169 18.9090909,16 16.4514107,16 C13.7429467,16 11.2852665,13.8432602 11.2852665,10.1818182 C11.2852665,6.0689655 13.492163,2.50783699 17.0031348,0 Z" id="“"></path>
        </g>
    </g>
</svg>