<?xml version="1.0" encoding="UTF-8"?>
<svg width="21px" height="16px" viewBox="0 0 21 16" version="1.1" xmlns="http://www.w3.org/2000/svg" xmlns:xlink="http://www.w3.org/1999/xlink">
    <!-- Generator: Sketch 50.2 (55047) - http://www.bohemiancoding.com/sketch -->
    <title>“</title>
    <desc>Created with Sketch.</desc>
    <defs></defs>
    <g id="v2" stroke="none" stroke-width="1" fill="none" fill-rule="evenodd">
        <g id="HOME-V2" transform="translate(-195.000000, -2483.000000)" fill="#A35ABF">
            <g id="tripadvisor" transform="translate(92.000000, 2312.000000)">
                <g id="Group-10">
                    <g id="Group-8" transform="translate(60.000000, 165.000000)">
                        <path d="M48.7178683,6 L51.9278997,8.60815047 C50.322884,9.41065831 48.2163009,11.5673981 47.7147335,13.3730408 C47.9153605,13.322884 48.3667712,13.2225705 48.8683386,13.2225705 C50.9749216,13.2225705 52.7304075,14.8777429 52.7304075,17.3354232 C52.7304075,19.8934169 50.6238245,22 48.1159875,22 C45.4075235,22 43,19.8432602 43,16.1818182 C43,12.0689655 45.2068966,8.50783699 48.7178683,6 Z M60.0031348,6 L63.2131661,8.60815047 C61.6081505,9.41065831 59.5517241,11.5673981 59,13.3730408 C59.200627,13.322884 59.6520376,13.2225705 60.153605,13.2225705 C62.3103448,13.2225705 64.015674,14.8777429 64.015674,17.3354232 C64.015674,19.8934169 61.9090909,22 59.4514107,22 C56.7429467,22 54.2852665,19.8432602 54.2852665,16.1818182 C54.2852665,12.0689655 56.492163,8.50783699 60.0031348,6 Z" id="“"></path>
                    </g>
                </g>
            </g>
        </g>
    </g>
</svg>