<?xml version="1.0" encoding="UTF-8" standalone="no"?>
<svg width="1138px" height="991px" viewBox="0 0 1138 991" version="1.1" xmlns="http://www.w3.org/2000/svg" xmlns:xlink="http://www.w3.org/1999/xlink">
    <!-- Generator: Sketch 43.1 (39012) - http://www.bohemiancoding.com/sketch -->
    <title>shape</title>
    <desc>Created with Sketch.</desc>
    <defs>
        <linearGradient x1="10.0714291%" y1="1.74839515%" x2="91.0619938%" y2="45.4097643%" id="linearGradient-1">
            <stop stop-color="#3A98CB" offset="0%"></stop>
            <stop stop-color="#249D87" offset="100%"></stop>
        </linearGradient>
    </defs>
    <g id="Page-1" stroke="none" stroke-width="1" fill="none" fill-rule="evenodd">
        <g id="home_v1" transform="translate(-49.000000, -52.000000)" fill="url(#linearGradient-1)">
            <g id="header" transform="translate(49.000000, 52.000000)">
                <g id="shape">
                    <g id="Group-3">
                        <path d="M1034.77108,235.338976 C1088.69789,346.399049 1166.09014,522.462787 1126.81102,647.879051 C1079.88012,797.562379 866.504865,911.318792 728.189892,956.136342 C545.713236,1015.09146 447.770494,1002.99436 287.083183,891.205551 C148.986832,795.303283 13.8054434,673.749344 1.12535633,496.811117 C-13.6680786,286.059324 180.322679,113.129171 353.835826,36.8300256 C534.563504,-42.8942003 850.836941,9.21075542 991.04664,169.898066 C1008.53642,189.938434 1023.32985,211.727779 1034.77108,235.338976 Z" id="Fill-6"></path>
                        <g id="Group-2" transform="translate(120.000000, 834.000000)">
                            <path d="M53.1990096,22.0937542 C50.0443187,25.496831 45.3440931,27.4865143 42.8287198,31.4877455 C40.1488619,35.7435437 40.7695586,41.3221534 38.1424599,45.7356894 C35.4362224,50.2741664 30.9935859,52.894801 26.1831866,54.7532964 C13.6389067,59.6088108 4.98018808,47.3036973 10.0047277,35.715432 C13.9632208,26.5838165 22.4186613,20.8630867 27.9568274,12.8653095 C32.0208389,6.9915271 33.5260283,-9.2429766 43.2228622,-7.46725455 C48.2132635,-6.55206271 52.2477919,-2.16976186 54.5055761,3.12616907 C57.2940559,9.66369985 57.3700913,17.5943213 53.1990096,22.0937542 Z" id="Fill-5" transform="translate(32.518034, 24.119359) rotate(-270.000000) translate(-32.518034, -24.119359) "></path>
                            <path d="M96.4316028,53.3300495 C96.9252289,53.8993147 97.3427544,54.5182613 97.6656681,55.1889593 C99.187682,58.3437239 101.371978,63.344978 100.263376,66.9075436 C98.9388122,71.1594376 92.9165734,74.3907942 89.0128134,75.6638784 C83.8626475,77.3385533 81.0983411,76.9949241 76.5631511,73.8194589 C72.6655614,71.0952659 68.8502428,67.6424133 68.4923638,62.6163185 C68.0748384,56.629718 73.5499749,51.7174762 78.4471575,49.5501281 C83.5479608,47.2854874 92.4743667,48.7655771 96.4316028,53.3300495" id="Fill-6"></path>
                        </g>
                    </g>
                </g>
            </g>
        </g>
    </g>
</svg>