<?xml version="1.0" encoding="UTF-8" standalone="no"?>
<svg width="2189px" height="2515px" viewBox="0 0 2189 2515" version="1.1" xmlns="http://www.w3.org/2000/svg" xmlns:xlink="http://www.w3.org/1999/xlink">
    <!-- Generator: Sketch 43.1 (39012) - http://www.bohemiancoding.com/sketch -->
    <title>Group</title>
    <desc>Created with Sketch.</desc>
    <defs>
        <linearGradient x1="10.0714291%" y1="1.74839515%" x2="91.0619938%" y2="45.4097643%" id="linearGradient-1">
            <stop stop-color="#A35ABF" offset="0%"></stop>
            <stop stop-color="#3A98CB" offset="100%"></stop>
        </linearGradient>
    </defs>
    <g id="Page-1" stroke="none" stroke-width="1" fill="none" fill-rule="evenodd">
        <g id="Group" fill="url(#linearGradient-1)">
            <path d="M1193.4095,788.701467 C1109.08231,879.084614 983.441854,931.929097 916.204094,1038.19877 C844.569539,1151.22955 861.161214,1299.39321 790.936951,1416.61339 C718.597251,1537.1519 599.842341,1606.75398 471.256863,1656.11421 C135.939122,1785.073 -95.5147368,1458.25849 38.7948681,1150.48293 C144.608272,907.954127 370.628358,756.015868 518.667573,543.600956 C627.301562,387.597736 667.536372,-43.5784041 926.739807,3.58343057 C1060.13687,27.8902337 1167.98275,144.28083 1228.33497,284.936751 C1302.87307,458.568624 1304.90555,669.199931 1193.4095,788.701467 Z" id="Fill-5"></path>
            <path d="M2100.4095,1618.70147 C2016.08231,1709.08461 1890.44185,1761.9291 1823.20409,1868.19877 C1751.56954,1981.22955 1768.16121,2129.39321 1697.93695,2246.61339 C1625.59725,2367.1519 1506.84234,2436.75398 1378.25686,2486.11421 C1042.93912,2615.073 811.485263,2288.25849 945.794868,1980.48293 C1051.60827,1737.95413 1277.62836,1586.01587 1425.66757,1373.60096 C1534.30156,1217.59774 1574.53637,786.421596 1833.73981,833.583431 C1967.13687,857.890234 2074.98275,974.28083 2135.33497,1114.93675 C2209.87307,1288.56862 2211.90555,1499.19993 2100.4095,1618.70147 Z" id="Fill-5"></path>
        </g>
    </g>
</svg>