<?xml version="1.0" encoding="UTF-8" standalone="no"?>
<svg width="1040px" height="993px" viewBox="0 0 1040 993" version="1.1" xmlns="http://www.w3.org/2000/svg" xmlns:xlink="http://www.w3.org/1999/xlink">
    <!-- Generator: Sketch 44.1 (41455) - http://www.bohemiancoding.com/sketch -->
    <title>Group</title>
    <desc>Created with Sketch.</desc>
    <defs>
        <linearGradient x1="10.0714291%" y1="1.74839515%" x2="91.0619938%" y2="45.4097643%" id="linearGradient-1">
            <stop stop-color="#3A98CB" offset="0%"></stop>
            <stop stop-color="#249D87" offset="100%"></stop>
        </linearGradient>
    </defs>
    <g id="Page-1" stroke="none" stroke-width="1" fill="none" fill-rule="evenodd">
        <g id="Group" transform="translate(-96.000000, -297.000000)" fill="url(#linearGradient-1)">
            <path d="M1116.86575,841.353928 C974.92559,947.929883 734.409132,1030.69724 722.300711,1117.63623 C710.999673,1198.77816 601.087378,1207.42235 340.473778,977.161524 C79.8601788,746.900702 153.242084,434.76089 251.911175,338.765609 C350.511618,242.837116 397.570641,301.524753 548.602525,459.533278 C657.842902,573.819813 742.603718,493.061703 793.78032,384.264121 C830.80935,305.543205 996.02706,179.30755 1138.53176,291.22998 C1284.52483,405.892161 1258.8059,734.777974 1116.86575,841.353928 Z" id="Fill-2" transform="translate(698.900965, 708.288900) rotate(-130.000000) translate(-698.900965, -708.288900) "></path>
            <g id="Group-2" transform="translate(466.400965, 869.954538)">
                <path d="M53.1990096,22.0937542 C50.0443187,25.496831 45.3440931,27.4865143 42.8287198,31.4877455 C40.1488619,35.7435437 40.7695586,41.3221534 38.1424599,45.7356894 C35.4362224,50.2741664 30.9935859,52.894801 26.1831866,54.7532964 C13.6389067,59.6088108 4.98018808,47.3036973 10.0047277,35.715432 C13.9632208,26.5838165 22.4186613,20.8630867 27.9568274,12.8653095 C32.0208389,6.9915271 33.5260283,-9.2429766 43.2228622,-7.46725455 C48.2132635,-6.55206271 52.2477919,-2.16976186 54.5055761,3.12616907 C57.2940559,9.66369985 57.3700913,17.5943213 53.1990096,22.0937542 Z" id="Fill-5" transform="translate(32.518034, 24.119359) rotate(-270.000000) translate(-32.518034, -24.119359) "></path>
                <path d="M96.4316028,53.3300495 C96.9252289,53.8993147 97.3427544,54.5182613 97.6656681,55.1889593 C99.187682,58.3437239 101.371978,63.344978 100.263376,66.9075436 C98.9388122,71.1594376 92.9165734,74.3907942 89.0128134,75.6638784 C83.8626475,77.3385533 81.0983411,76.9949241 76.5631511,73.8194589 C72.6655614,71.0952659 68.8502428,67.6424133 68.4923638,62.6163185 C68.0748384,56.629718 73.5499749,51.7174762 78.4471575,49.5501281 C83.5479608,47.2854874 92.4743667,48.7655771 96.4316028,53.3300495" id="Fill-6"></path>
            </g>
        </g>
    </g>
</svg>