<?xml version="1.0" encoding="UTF-8"?>
<svg width="24px" height="26px" viewBox="0 0 24 26" version="1.1" xmlns="http://www.w3.org/2000/svg" xmlns:xlink="http://www.w3.org/1999/xlink">
    <!-- Generator: Sketch 50.2 (55047) - http://www.bohemiancoding.com/sketch -->
    <title>trash</title>
    <desc>Created with Sketch.</desc>
    <defs></defs>
    <g id="v2" stroke="none" stroke-width="1" fill="none" fill-rule="evenodd">
        <g id="Booking-form" transform="translate(-1160.000000, -228.000000)" fill="#FFFFFF" fill-rule="nonzero">
            <g id="book-1" transform="translate(146.000000, 110.000000)">
                <g id="form" transform="translate(0.000000, 113.000000)">
                    <g id="guest" transform="translate(598.000000, 0.000000)">
                        <g id="trash" transform="translate(416.000000, 5.000000)">
                            <path d="M23.8028189,4.48064692 C23.7009231,4.37943052 23.5705012,4.32855581 23.4119702,4.32855581 L18.1579355,4.32855581 L16.9677618,1.50492027 C16.7977965,1.08773576 16.4916923,0.73261959 16.049866,0.439512528 C15.6076228,0.146464692 15.1596625,0 14.706402,0 L9.26542928,0 C8.81216873,0 8.36432754,0.146464692 7.92226303,0.439512528 C7.48013896,0.73261959 7.17409429,1.08767654 7.00400993,1.50492027 L5.81383623,4.32855581 L0.560039702,4.32855581 C0.401210918,4.32855581 0.271027295,4.37943052 0.168952854,4.48064692 C0.0671761787,4.58210023 0.0160198511,4.7118041 0.0160198511,4.86958087 L0.0160198511,5.95186788 C0.0160198511,6.10964465 0.0669379653,6.23934852 0.168952854,6.34062415 C0.271027295,6.44201822 0.401449132,6.49271526 0.560039702,6.49271526 L2.19215881,6.49271526 L2.19215881,22.5902096 C2.19215881,23.5261503 2.45854094,24.3235034 2.99124566,24.9828018 C3.52406948,25.6425148 4.1645062,25.9720456 4.91267494,25.9720456 L19.0590968,25.9720456 C19.8074442,25.9720456 20.4478213,25.6311435 20.9805856,24.9493394 C21.5132903,24.2670615 21.7794938,23.4583964 21.7794938,22.5228109 L21.7794938,6.49271526 L23.4119107,6.49271526 C23.5704417,6.49271526 23.7009231,6.44201822 23.8027593,6.34062415 C23.9044764,6.23940774 23.9558114,6.10964465 23.9558114,5.95186788 L23.9558114,4.86958087 C23.9559305,4.7118041 23.904536,4.58210023 23.8028189,4.48064692 Z M9.01048139,2.34994989 C9.0897469,2.24855581 9.18616377,2.18636902 9.2994938,2.16398178 L14.6893102,2.16398178 C14.8026402,2.1865467 14.8992357,2.24867426 14.9783821,2.34994989 L15.794799,4.32831891 L8.17733002,4.32831891 L9.01048139,2.34994989 Z M19.6033548,22.5229294 C19.6033548,22.7708474 19.5638114,22.999221 19.4843077,23.2076355 C19.4048635,23.4159909 19.3225012,23.5682005 19.2376973,23.6640273 C19.1524764,23.7600911 19.0933995,23.8077677 19.0591563,23.8077677 L4.91273449,23.8077677 C4.87872953,23.8077677 4.8195335,23.7600911 4.73431266,23.6640273 C4.64921092,23.5682005 4.56696774,23.4159909 4.48758313,23.2076355 C4.40831762,22.999221 4.36865509,22.7706105 4.36865509,22.5229294 L4.36865509,6.49271526 L19.6032953,6.49271526 L19.6032953,22.5229294 L19.6033548,22.5229294 Z" id="Shape"></path>
                            <path d="M7.08923077,20.5614396 L8.17733002,20.5614396 C8.33615881,20.5614396 8.4666402,20.5108018 8.56841687,20.4094077 C8.67019355,20.3076583 8.72134988,20.178369 8.72134988,20.0202961 L8.72134988,10.2804237 C8.72134988,10.1227062 8.67019355,9.99300228 8.56841687,9.89148975 C8.46634243,9.79027335 8.33621836,9.73957631 8.17733002,9.73957631 L7.08923077,9.73957631 C6.93040199,9.73957631 6.80015881,9.79021412 6.69814392,9.89148975 C6.59624814,9.99300228 6.54521092,10.1227062 6.54521092,10.2804237 L6.54521092,20.0202961 C6.54521092,20.178369 6.59606948,20.3077175 6.69814392,20.4094077 C6.80015881,20.5107426 6.93040199,20.5614396 7.08923077,20.5614396 Z" id="Shape"></path>
                            <path d="M11.4419256,20.5614396 L12.5300248,20.5614396 C12.688794,20.5614396 12.8192159,20.5108018 12.920933,20.4094077 C13.0232457,20.3076583 13.0739256,20.178369 13.0739256,20.0202961 L13.0739256,10.2804237 C13.0739256,10.1227062 13.0231861,9.99300228 12.920933,9.89148975 C12.8192159,9.79027335 12.688794,9.73957631 12.5300248,9.73957631 L11.4419256,9.73957631 C11.2832754,9.73957631 11.1528536,9.79021412 11.0508387,9.89148975 C10.9487643,9.99300228 10.8979057,10.1227062 10.8979057,10.2804237 L10.8979057,20.0202961 C10.8979057,20.178369 10.9487643,20.3077175 11.0508387,20.4094077 C11.152794,20.5107426 11.2832754,20.5614396 11.4419256,20.5614396 Z" id="Shape"></path>
                            <path d="M15.7947395,20.5614396 L16.88266,20.5614396 C17.0416079,20.5614396 17.1720298,20.5108018 17.2739256,20.4094077 C17.3758213,20.3076583 17.4265012,20.178369 17.4265012,20.0202961 L17.4265012,10.2804237 C17.4265012,10.1227062 17.3757618,9.99300228 17.2739256,9.89148975 C17.1720298,9.79027335 17.0416079,9.73957631 16.88266,9.73957631 L15.7947395,9.73957631 C15.635732,9.73957631 15.505727,9.79021412 15.4034144,9.89148975 C15.3015186,9.99300228 15.2506005,10.1227062 15.2506005,10.2804237 L15.2506005,20.0202961 C15.2506005,20.178369 15.3015186,20.3077175 15.4034144,20.4094077 C15.505727,20.5107426 15.635732,20.5614396 15.7947395,20.5614396 Z" id="Shape"></path>
                        </g>
                    </g>
                </g>
            </g>
        </g>
    </g>
</svg>